%TF.GenerationSoftware,KiCad,Pcbnew,8.0.4*%
%TF.CreationDate,2024-08-28T21:17:21+02:00*%
%TF.ProjectId,Projektor,50726f6a-656b-4746-9f72-2e6b69636164,rev?*%
%TF.SameCoordinates,Original*%
%TF.FileFunction,Legend,Top*%
%TF.FilePolarity,Positive*%
%FSLAX46Y46*%
G04 Gerber Fmt 4.6, Leading zero omitted, Abs format (unit mm)*
G04 Created by KiCad (PCBNEW 8.0.4) date 2024-08-28 21:17:21*
%MOMM*%
%LPD*%
G01*
G04 APERTURE LIST*
G04 Aperture macros list*
%AMRoundRect*
0 Rectangle with rounded corners*
0 $1 Rounding radius*
0 $2 $3 $4 $5 $6 $7 $8 $9 X,Y pos of 4 corners*
0 Add a 4 corners polygon primitive as box body*
4,1,4,$2,$3,$4,$5,$6,$7,$8,$9,$2,$3,0*
0 Add four circle primitives for the rounded corners*
1,1,$1+$1,$2,$3*
1,1,$1+$1,$4,$5*
1,1,$1+$1,$6,$7*
1,1,$1+$1,$8,$9*
0 Add four rect primitives between the rounded corners*
20,1,$1+$1,$2,$3,$4,$5,0*
20,1,$1+$1,$4,$5,$6,$7,0*
20,1,$1+$1,$6,$7,$8,$9,0*
20,1,$1+$1,$8,$9,$2,$3,0*%
G04 Aperture macros list end*
%ADD10C,0.150000*%
%ADD11C,0.100000*%
%ADD12C,0.120000*%
%ADD13RoundRect,0.150000X0.150000X-0.587500X0.150000X0.587500X-0.150000X0.587500X-0.150000X-0.587500X0*%
%ADD14RoundRect,0.200000X0.200000X0.450000X-0.200000X0.450000X-0.200000X-0.450000X0.200000X-0.450000X0*%
%ADD15O,0.800000X1.300000*%
%ADD16RoundRect,0.140000X-0.170000X0.140000X-0.170000X-0.140000X0.170000X-0.140000X0.170000X0.140000X0*%
%ADD17RoundRect,0.250000X-0.625000X0.312500X-0.625000X-0.312500X0.625000X-0.312500X0.625000X0.312500X0*%
%ADD18RoundRect,0.135000X-0.185000X0.135000X-0.185000X-0.135000X0.185000X-0.135000X0.185000X0.135000X0*%
%ADD19RoundRect,0.135000X0.185000X-0.135000X0.185000X0.135000X-0.185000X0.135000X-0.185000X-0.135000X0*%
%ADD20R,1.200000X0.400000*%
%ADD21C,1.524000*%
%ADD22R,0.250000X1.905000*%
%ADD23C,1.500000*%
G04 APERTURE END LIST*
D10*
X239888082Y-45290238D02*
X239840463Y-45385476D01*
X239840463Y-45385476D02*
X239745225Y-45480714D01*
X239745225Y-45480714D02*
X239602367Y-45623571D01*
X239602367Y-45623571D02*
X239554748Y-45718809D01*
X239554748Y-45718809D02*
X239554748Y-45814047D01*
X239792844Y-45766428D02*
X239745225Y-45861666D01*
X239745225Y-45861666D02*
X239649986Y-45956904D01*
X239649986Y-45956904D02*
X239459510Y-46004523D01*
X239459510Y-46004523D02*
X239126177Y-46004523D01*
X239126177Y-46004523D02*
X238935701Y-45956904D01*
X238935701Y-45956904D02*
X238840463Y-45861666D01*
X238840463Y-45861666D02*
X238792844Y-45766428D01*
X238792844Y-45766428D02*
X238792844Y-45575952D01*
X238792844Y-45575952D02*
X238840463Y-45480714D01*
X238840463Y-45480714D02*
X238935701Y-45385476D01*
X238935701Y-45385476D02*
X239126177Y-45337857D01*
X239126177Y-45337857D02*
X239459510Y-45337857D01*
X239459510Y-45337857D02*
X239649986Y-45385476D01*
X239649986Y-45385476D02*
X239745225Y-45480714D01*
X239745225Y-45480714D02*
X239792844Y-45575952D01*
X239792844Y-45575952D02*
X239792844Y-45766428D01*
X239792844Y-44385476D02*
X239792844Y-44956904D01*
X239792844Y-44671190D02*
X238792844Y-44671190D01*
X238792844Y-44671190D02*
X238935701Y-44766428D01*
X238935701Y-44766428D02*
X239030939Y-44861666D01*
X239030939Y-44861666D02*
X239078558Y-44956904D01*
X234296666Y-67204819D02*
X234296666Y-67919104D01*
X234296666Y-67919104D02*
X234249047Y-68061961D01*
X234249047Y-68061961D02*
X234153809Y-68157200D01*
X234153809Y-68157200D02*
X234010952Y-68204819D01*
X234010952Y-68204819D02*
X233915714Y-68204819D01*
X235296666Y-68204819D02*
X234725238Y-68204819D01*
X235010952Y-68204819D02*
X235010952Y-67204819D01*
X235010952Y-67204819D02*
X234915714Y-67347676D01*
X234915714Y-67347676D02*
X234820476Y-67442914D01*
X234820476Y-67442914D02*
X234725238Y-67490533D01*
X240459580Y-54366666D02*
X240507200Y-54414285D01*
X240507200Y-54414285D02*
X240554819Y-54557142D01*
X240554819Y-54557142D02*
X240554819Y-54652380D01*
X240554819Y-54652380D02*
X240507200Y-54795237D01*
X240507200Y-54795237D02*
X240411961Y-54890475D01*
X240411961Y-54890475D02*
X240316723Y-54938094D01*
X240316723Y-54938094D02*
X240126247Y-54985713D01*
X240126247Y-54985713D02*
X239983390Y-54985713D01*
X239983390Y-54985713D02*
X239792914Y-54938094D01*
X239792914Y-54938094D02*
X239697676Y-54890475D01*
X239697676Y-54890475D02*
X239602438Y-54795237D01*
X239602438Y-54795237D02*
X239554819Y-54652380D01*
X239554819Y-54652380D02*
X239554819Y-54557142D01*
X239554819Y-54557142D02*
X239602438Y-54414285D01*
X239602438Y-54414285D02*
X239650057Y-54366666D01*
X240554819Y-53414285D02*
X240554819Y-53985713D01*
X240554819Y-53699999D02*
X239554819Y-53699999D01*
X239554819Y-53699999D02*
X239697676Y-53795237D01*
X239697676Y-53795237D02*
X239792914Y-53890475D01*
X239792914Y-53890475D02*
X239840533Y-53985713D01*
X243554819Y-61966666D02*
X243078628Y-62299999D01*
X243554819Y-62538094D02*
X242554819Y-62538094D01*
X242554819Y-62538094D02*
X242554819Y-62157142D01*
X242554819Y-62157142D02*
X242602438Y-62061904D01*
X242602438Y-62061904D02*
X242650057Y-62014285D01*
X242650057Y-62014285D02*
X242745295Y-61966666D01*
X242745295Y-61966666D02*
X242888152Y-61966666D01*
X242888152Y-61966666D02*
X242983390Y-62014285D01*
X242983390Y-62014285D02*
X243031009Y-62061904D01*
X243031009Y-62061904D02*
X243078628Y-62157142D01*
X243078628Y-62157142D02*
X243078628Y-62538094D01*
X242888152Y-61109523D02*
X243554819Y-61109523D01*
X242507200Y-61347618D02*
X243221485Y-61585713D01*
X243221485Y-61585713D02*
X243221485Y-60966666D01*
X243654819Y-52566666D02*
X243178628Y-52899999D01*
X243654819Y-53138094D02*
X242654819Y-53138094D01*
X242654819Y-53138094D02*
X242654819Y-52757142D01*
X242654819Y-52757142D02*
X242702438Y-52661904D01*
X242702438Y-52661904D02*
X242750057Y-52614285D01*
X242750057Y-52614285D02*
X242845295Y-52566666D01*
X242845295Y-52566666D02*
X242988152Y-52566666D01*
X242988152Y-52566666D02*
X243083390Y-52614285D01*
X243083390Y-52614285D02*
X243131009Y-52661904D01*
X243131009Y-52661904D02*
X243178628Y-52757142D01*
X243178628Y-52757142D02*
X243178628Y-53138094D01*
X242654819Y-52233332D02*
X242654819Y-51614285D01*
X242654819Y-51614285D02*
X243035771Y-51947618D01*
X243035771Y-51947618D02*
X243035771Y-51804761D01*
X243035771Y-51804761D02*
X243083390Y-51709523D01*
X243083390Y-51709523D02*
X243131009Y-51661904D01*
X243131009Y-51661904D02*
X243226247Y-51614285D01*
X243226247Y-51614285D02*
X243464342Y-51614285D01*
X243464342Y-51614285D02*
X243559580Y-51661904D01*
X243559580Y-51661904D02*
X243607200Y-51709523D01*
X243607200Y-51709523D02*
X243654819Y-51804761D01*
X243654819Y-51804761D02*
X243654819Y-52090475D01*
X243654819Y-52090475D02*
X243607200Y-52185713D01*
X243607200Y-52185713D02*
X243559580Y-52233332D01*
X242554819Y-48266666D02*
X242078628Y-48599999D01*
X242554819Y-48838094D02*
X241554819Y-48838094D01*
X241554819Y-48838094D02*
X241554819Y-48457142D01*
X241554819Y-48457142D02*
X241602438Y-48361904D01*
X241602438Y-48361904D02*
X241650057Y-48314285D01*
X241650057Y-48314285D02*
X241745295Y-48266666D01*
X241745295Y-48266666D02*
X241888152Y-48266666D01*
X241888152Y-48266666D02*
X241983390Y-48314285D01*
X241983390Y-48314285D02*
X242031009Y-48361904D01*
X242031009Y-48361904D02*
X242078628Y-48457142D01*
X242078628Y-48457142D02*
X242078628Y-48838094D01*
X241650057Y-47885713D02*
X241602438Y-47838094D01*
X241602438Y-47838094D02*
X241554819Y-47742856D01*
X241554819Y-47742856D02*
X241554819Y-47504761D01*
X241554819Y-47504761D02*
X241602438Y-47409523D01*
X241602438Y-47409523D02*
X241650057Y-47361904D01*
X241650057Y-47361904D02*
X241745295Y-47314285D01*
X241745295Y-47314285D02*
X241840533Y-47314285D01*
X241840533Y-47314285D02*
X241983390Y-47361904D01*
X241983390Y-47361904D02*
X242554819Y-47933332D01*
X242554819Y-47933332D02*
X242554819Y-47314285D01*
X240154819Y-48366666D02*
X239678628Y-48699999D01*
X240154819Y-48938094D02*
X239154819Y-48938094D01*
X239154819Y-48938094D02*
X239154819Y-48557142D01*
X239154819Y-48557142D02*
X239202438Y-48461904D01*
X239202438Y-48461904D02*
X239250057Y-48414285D01*
X239250057Y-48414285D02*
X239345295Y-48366666D01*
X239345295Y-48366666D02*
X239488152Y-48366666D01*
X239488152Y-48366666D02*
X239583390Y-48414285D01*
X239583390Y-48414285D02*
X239631009Y-48461904D01*
X239631009Y-48461904D02*
X239678628Y-48557142D01*
X239678628Y-48557142D02*
X239678628Y-48938094D01*
X240154819Y-47414285D02*
X240154819Y-47985713D01*
X240154819Y-47699999D02*
X239154819Y-47699999D01*
X239154819Y-47699999D02*
X239297676Y-47795237D01*
X239297676Y-47795237D02*
X239392914Y-47890475D01*
X239392914Y-47890475D02*
X239440533Y-47985713D01*
X229538095Y-61754819D02*
X229538095Y-62564342D01*
X229538095Y-62564342D02*
X229585714Y-62659580D01*
X229585714Y-62659580D02*
X229633333Y-62707200D01*
X229633333Y-62707200D02*
X229728571Y-62754819D01*
X229728571Y-62754819D02*
X229919047Y-62754819D01*
X229919047Y-62754819D02*
X230014285Y-62707200D01*
X230014285Y-62707200D02*
X230061904Y-62659580D01*
X230061904Y-62659580D02*
X230109523Y-62564342D01*
X230109523Y-62564342D02*
X230109523Y-61754819D01*
X230538095Y-61850057D02*
X230585714Y-61802438D01*
X230585714Y-61802438D02*
X230680952Y-61754819D01*
X230680952Y-61754819D02*
X230919047Y-61754819D01*
X230919047Y-61754819D02*
X231014285Y-61802438D01*
X231014285Y-61802438D02*
X231061904Y-61850057D01*
X231061904Y-61850057D02*
X231109523Y-61945295D01*
X231109523Y-61945295D02*
X231109523Y-62040533D01*
X231109523Y-62040533D02*
X231061904Y-62183390D01*
X231061904Y-62183390D02*
X230490476Y-62754819D01*
X230490476Y-62754819D02*
X231109523Y-62754819D01*
X233618095Y-35054819D02*
X233618095Y-35864342D01*
X233618095Y-35864342D02*
X233665714Y-35959580D01*
X233665714Y-35959580D02*
X233713333Y-36007200D01*
X233713333Y-36007200D02*
X233808571Y-36054819D01*
X233808571Y-36054819D02*
X233999047Y-36054819D01*
X233999047Y-36054819D02*
X234094285Y-36007200D01*
X234094285Y-36007200D02*
X234141904Y-35959580D01*
X234141904Y-35959580D02*
X234189523Y-35864342D01*
X234189523Y-35864342D02*
X234189523Y-35054819D01*
X235189523Y-36054819D02*
X234618095Y-36054819D01*
X234903809Y-36054819D02*
X234903809Y-35054819D01*
X234903809Y-35054819D02*
X234808571Y-35197676D01*
X234808571Y-35197676D02*
X234713333Y-35292914D01*
X234713333Y-35292914D02*
X234618095Y-35340533D01*
D11*
X235953884Y-41121466D02*
X236715789Y-41121466D01*
X233413884Y-41121466D02*
X234175789Y-41121466D01*
X233794836Y-41502419D02*
X233794836Y-40740514D01*
D12*
%TO.C,Q1*%
X240178025Y-45195000D02*
X240178025Y-44545000D01*
X240178025Y-45195000D02*
X240178025Y-46870000D01*
X243298025Y-45195000D02*
X243298025Y-44545000D01*
X243298025Y-45195000D02*
X243298025Y-45845000D01*
%TO.C,J1*%
X229890000Y-63240000D02*
X229890000Y-66660000D01*
X229890000Y-66660000D02*
X239360000Y-66660000D01*
X230200000Y-64500000D02*
X230200000Y-65300000D01*
X230200000Y-65300000D02*
X230400000Y-65300000D01*
X230400000Y-63750000D02*
X230400000Y-64500000D01*
X230400000Y-64500000D02*
X230200000Y-64500000D01*
X230400000Y-65300000D02*
X230400000Y-66150000D01*
X230400000Y-66150000D02*
X234625000Y-66150000D01*
X234625000Y-63750000D02*
X230400000Y-63750000D01*
X234625000Y-63750000D02*
X238850000Y-63750000D01*
X238850000Y-63750000D02*
X238850000Y-64500000D01*
X238850000Y-64500000D02*
X239050000Y-64500000D01*
X238850000Y-65300000D02*
X238850000Y-66150000D01*
X238850000Y-66150000D02*
X234625000Y-66150000D01*
X239050000Y-64500000D02*
X239050000Y-65300000D01*
X239050000Y-65300000D02*
X238850000Y-65300000D01*
X239360000Y-63240000D02*
X229890000Y-63240000D01*
X239360000Y-66660000D02*
X239360000Y-63240000D01*
X239650000Y-62950000D02*
X238650000Y-62950000D01*
X239650000Y-62950000D02*
X239650000Y-63950000D01*
%TO.C,C1*%
X239678025Y-52229664D02*
X239678025Y-52445336D01*
X240398025Y-52229664D02*
X240398025Y-52445336D01*
%TO.C,R4*%
X242090000Y-57735436D02*
X242090000Y-59189564D01*
X243910000Y-57735436D02*
X243910000Y-59189564D01*
%TO.C,R3*%
X241358025Y-52213859D02*
X241358025Y-52521141D01*
X242118025Y-52213859D02*
X242118025Y-52521141D01*
%TO.C,R2*%
X241358025Y-50013859D02*
X241358025Y-50321141D01*
X242118025Y-50013859D02*
X242118025Y-50321141D01*
%TO.C,R1*%
X239658025Y-50301141D02*
X239658025Y-49993859D01*
X240418025Y-50301141D02*
X240418025Y-49993859D01*
D10*
%TO.C,U2*%
X229463025Y-45185000D02*
X229463025Y-45532500D01*
X229463025Y-61335000D02*
X229463025Y-60987500D01*
X237213025Y-45185000D02*
X229463025Y-45185000D01*
X237213025Y-45185000D02*
X237213025Y-45532500D01*
X237213025Y-61085000D02*
X238638025Y-61085000D01*
X237213025Y-61335000D02*
X229463025Y-61335000D01*
X237213025Y-61335000D02*
X237213025Y-61085000D01*
%TO.C,U1*%
X228030000Y-21630000D02*
X228030000Y-27345000D01*
X228030000Y-31155000D02*
X228030000Y-40680000D01*
X228030000Y-40680000D02*
X230570000Y-43220000D01*
X230510000Y-23575000D02*
X230510000Y-26115000D01*
X230510000Y-26115000D02*
X239400000Y-26115000D01*
X230570000Y-43220000D02*
X233110000Y-43220000D01*
X239400000Y-23575000D02*
X230510000Y-23575000D01*
X239400000Y-26115000D02*
X239400000Y-23575000D01*
X239460000Y-43220000D02*
X236920000Y-43220000D01*
X239460000Y-43220000D02*
X242000000Y-40680000D01*
X242000000Y-21630000D02*
X228030000Y-21630000D01*
X242000000Y-21630000D02*
X242000000Y-27345000D01*
X242000000Y-31155000D02*
X242000000Y-40680000D01*
%TD*%
%LPC*%
D13*
%TO.C,Q1*%
X240788025Y-46132500D03*
X242688025Y-46132500D03*
X241738025Y-44257500D03*
%TD*%
D14*
%TO.C,J1*%
X237750000Y-64500000D03*
D15*
X236500000Y-64500000D03*
X235250000Y-64500000D03*
X234000000Y-64500000D03*
X232750000Y-64500000D03*
X231500000Y-64500000D03*
%TD*%
D16*
%TO.C,C1*%
X240038025Y-51857500D03*
X240038025Y-52817500D03*
%TD*%
D17*
%TO.C,R4*%
X243000000Y-57000000D03*
X243000000Y-59925000D03*
%TD*%
D18*
%TO.C,R3*%
X241738025Y-51857500D03*
X241738025Y-52877500D03*
%TD*%
%TO.C,R2*%
X241738025Y-49657500D03*
X241738025Y-50677500D03*
%TD*%
D19*
%TO.C,R1*%
X240038025Y-50657500D03*
X240038025Y-49637500D03*
%TD*%
D20*
%TO.C,U2*%
X238038025Y-60562500D03*
X238038025Y-59927500D03*
X238038025Y-59292500D03*
X238038025Y-58657500D03*
X238038025Y-58022500D03*
X238038025Y-57387500D03*
X238038025Y-56752500D03*
X238038025Y-56117500D03*
X238038025Y-55482500D03*
X238038025Y-54847500D03*
X238038025Y-54212500D03*
X238038025Y-53577500D03*
X238038025Y-52942500D03*
X238038025Y-52307500D03*
X238038025Y-51672500D03*
X238038025Y-51037500D03*
X238038025Y-50402500D03*
X238038025Y-49767500D03*
X238038025Y-49132500D03*
X238038025Y-48497500D03*
X238038025Y-47862500D03*
X238038025Y-47227500D03*
X238038025Y-46592500D03*
X238038025Y-45957500D03*
X228638025Y-45957500D03*
X228638025Y-46592500D03*
X228638025Y-47227500D03*
X228638025Y-47862500D03*
X228638025Y-48497500D03*
X228638025Y-49132500D03*
X228638025Y-49767500D03*
X228638025Y-50402500D03*
X228638025Y-51037500D03*
X228638025Y-51672500D03*
X228638025Y-52307500D03*
X228638025Y-52942500D03*
X228638025Y-53577500D03*
X228638025Y-54212500D03*
X228638025Y-54847500D03*
X228638025Y-55482500D03*
X228638025Y-56117500D03*
X228638025Y-56752500D03*
X228638025Y-57387500D03*
X228638025Y-58022500D03*
X228638025Y-58657500D03*
X228638025Y-59292500D03*
X228638025Y-59927500D03*
X228638025Y-60562500D03*
%TD*%
D21*
%TO.C,U1*%
X229875000Y-22900000D03*
X230005000Y-39537000D03*
X240035000Y-22900000D03*
D22*
X231442600Y-24851500D03*
X232027600Y-24851500D03*
X232612600Y-24851500D03*
X233197600Y-24851500D03*
X233782600Y-24851500D03*
X234367600Y-24851500D03*
X234952600Y-24851500D03*
X235537600Y-24851500D03*
X236122600Y-24851500D03*
X236707600Y-24851500D03*
X237292600Y-24851500D03*
X237877600Y-24851500D03*
X238462600Y-24851500D03*
D23*
X233745000Y-42585000D03*
X236285000Y-42585000D03*
%TD*%
%LPD*%
M02*
