M48
; DRILL file {KiCad 8.0.4} date 2024-08-28T21:17:21+0200
; FORMAT={-:-/ absolute / inch / decimal}
; #@! TF.CreationDate,2024-08-28T21:17:21+02:00
; #@! TF.GenerationSoftware,Kicad,Pcbnew,8.0.4
; #@! TF.FileFunction,Plated,1,2,PTH
FMAT,2
INCH
; #@! TA.AperFunction,Plated,PTH,ViaDrill
T1C0.0157
; #@! TA.AperFunction,Plated,PTH,ComponentDrill
T2C0.0197
; #@! TA.AperFunction,Plated,PTH,ComponentDrill
T3C0.0315
; #@! TA.AperFunction,Plated,PTH,ComponentDrill
T4C0.0500
%
G90
G05
T1
X9.0837Y-2.3404
X9.0842Y-2.2936
X9.0842Y-2.3802
X9.1432Y-1.1912
X9.1511Y-1.1479
X9.1669Y-2.4685
X9.1944Y-1.1479
X9.2084Y-1.0984
X9.2126Y-2.4409
X9.252Y-2.6772
X9.2523Y-1.1019
X9.2662Y-2.4622
X9.2761Y-2.1676
X9.2775Y-1.9672
X9.285Y-0.896
X9.2913Y-2.0472
X9.3046Y-2.4708
X9.3165Y-2.1204
X9.4182Y-2.0145
X9.4208Y-1.9558
X9.4258Y-1.8533
X9.4385Y-2.3802
X9.4779Y-1.8842
X9.5354Y-2.1299
T2
X9.1142Y-2.5394
X9.1634Y-2.5394
X9.2126Y-2.5394
X9.2618Y-2.5394
X9.311Y-2.5394
X9.3602Y-2.5394
T3
X9.2026Y-1.6766
X9.3026Y-1.6766
T4
X9.0502Y-0.9016
X9.0553Y-1.5566
X9.4502Y-0.9016
M30
