%TF.GenerationSoftware,KiCad,Pcbnew,8.0.4*%
%TF.CreationDate,2024-08-28T21:17:21+02:00*%
%TF.ProjectId,Projektor,50726f6a-656b-4746-9f72-2e6b69636164,rev?*%
%TF.SameCoordinates,Original*%
%TF.FileFunction,Profile,NP*%
%FSLAX46Y46*%
G04 Gerber Fmt 4.6, Leading zero omitted, Abs format (unit mm)*
G04 Created by KiCad (PCBNEW 8.0.4) date 2024-08-28 21:17:21*
%MOMM*%
%LPD*%
G01*
G04 APERTURE LIST*
%TA.AperFunction,Profile*%
%ADD10C,0.100000*%
%TD*%
%TA.AperFunction,Profile*%
%ADD11C,0.050000*%
%TD*%
G04 APERTURE END LIST*
D10*
X225000000Y-63000000D02*
G75*
G02*
X225000000Y-68000000I0J-2500000D01*
G01*
X245000000Y-21000000D02*
X230000000Y-21000000D01*
X228500000Y-43000000D02*
G75*
G02*
X225500000Y-43000000I-1500000J0D01*
G01*
X225500000Y-43000000D02*
G75*
G02*
X228500000Y-43000000I1500000J0D01*
G01*
X225000000Y-68000000D02*
X225000000Y-71000000D01*
X244500000Y-68500000D02*
G75*
G02*
X241500000Y-68500000I-1500000J0D01*
G01*
X241500000Y-68500000D02*
G75*
G02*
X244500000Y-68500000I1500000J0D01*
G01*
X230000000Y-21000000D02*
X225000000Y-21000000D01*
X225000000Y-63000000D02*
X225000000Y-33000000D01*
X245000000Y-71000000D02*
X245000000Y-21000000D01*
X225000000Y-71000000D02*
X245000000Y-71000000D01*
X225000000Y-21000000D02*
X225000000Y-33000000D01*
D11*
%TO.C,U1*%
X229275748Y-27984227D02*
X228005748Y-27984227D01*
X229275748Y-30524227D02*
X228005748Y-30524227D01*
X242000000Y-27980000D02*
X240730000Y-27980000D01*
X242000000Y-30520000D02*
X240730000Y-30520000D01*
X226723774Y-29252253D02*
G75*
G02*
X228005766Y-27982312I1270000J-2D01*
G01*
X228005748Y-30524227D02*
G75*
G02*
X226721744Y-29252253I-11975J1271973D01*
G01*
X229275748Y-27984227D02*
G75*
G02*
X230565908Y-29254227I20002J-1270000D01*
G01*
X230565905Y-29254227D02*
G75*
G02*
X229275748Y-30524226I-1270155J-2D01*
G01*
X239448026Y-29248026D02*
G75*
G02*
X240730018Y-27978085I1270000J-2D01*
G01*
X240730000Y-30520000D02*
G75*
G02*
X239445996Y-29248026I-11975J1271973D01*
G01*
X242000000Y-27980000D02*
G75*
G02*
X243290160Y-29250000I20002J-1270000D01*
G01*
X243290157Y-29250000D02*
G75*
G02*
X242000000Y-30520000I-1270157J0D01*
G01*
%TD*%
M02*
