%TF.GenerationSoftware,KiCad,Pcbnew,8.0.4*%
%TF.CreationDate,2024-08-28T21:17:21+02:00*%
%TF.ProjectId,Projektor,50726f6a-656b-4746-9f72-2e6b69636164,rev?*%
%TF.SameCoordinates,Original*%
%TF.FileFunction,Copper,L1,Top*%
%TF.FilePolarity,Positive*%
%FSLAX46Y46*%
G04 Gerber Fmt 4.6, Leading zero omitted, Abs format (unit mm)*
G04 Created by KiCad (PCBNEW 8.0.4) date 2024-08-28 21:17:21*
%MOMM*%
%LPD*%
G01*
G04 APERTURE LIST*
G04 Aperture macros list*
%AMRoundRect*
0 Rectangle with rounded corners*
0 $1 Rounding radius*
0 $2 $3 $4 $5 $6 $7 $8 $9 X,Y pos of 4 corners*
0 Add a 4 corners polygon primitive as box body*
4,1,4,$2,$3,$4,$5,$6,$7,$8,$9,$2,$3,0*
0 Add four circle primitives for the rounded corners*
1,1,$1+$1,$2,$3*
1,1,$1+$1,$4,$5*
1,1,$1+$1,$6,$7*
1,1,$1+$1,$8,$9*
0 Add four rect primitives between the rounded corners*
20,1,$1+$1,$2,$3,$4,$5,0*
20,1,$1+$1,$4,$5,$6,$7,0*
20,1,$1+$1,$6,$7,$8,$9,0*
20,1,$1+$1,$8,$9,$2,$3,0*%
G04 Aperture macros list end*
%TA.AperFunction,SMDPad,CuDef*%
%ADD10RoundRect,0.150000X0.150000X-0.587500X0.150000X0.587500X-0.150000X0.587500X-0.150000X-0.587500X0*%
%TD*%
%TA.AperFunction,ComponentPad*%
%ADD11RoundRect,0.200000X0.200000X0.450000X-0.200000X0.450000X-0.200000X-0.450000X0.200000X-0.450000X0*%
%TD*%
%TA.AperFunction,ComponentPad*%
%ADD12O,0.800000X1.300000*%
%TD*%
%TA.AperFunction,SMDPad,CuDef*%
%ADD13RoundRect,0.140000X-0.170000X0.140000X-0.170000X-0.140000X0.170000X-0.140000X0.170000X0.140000X0*%
%TD*%
%TA.AperFunction,SMDPad,CuDef*%
%ADD14RoundRect,0.250000X-0.625000X0.312500X-0.625000X-0.312500X0.625000X-0.312500X0.625000X0.312500X0*%
%TD*%
%TA.AperFunction,SMDPad,CuDef*%
%ADD15RoundRect,0.135000X-0.185000X0.135000X-0.185000X-0.135000X0.185000X-0.135000X0.185000X0.135000X0*%
%TD*%
%TA.AperFunction,SMDPad,CuDef*%
%ADD16RoundRect,0.135000X0.185000X-0.135000X0.185000X0.135000X-0.185000X0.135000X-0.185000X-0.135000X0*%
%TD*%
%TA.AperFunction,SMDPad,CuDef*%
%ADD17R,1.200000X0.400000*%
%TD*%
%TA.AperFunction,ComponentPad*%
%ADD18C,1.524000*%
%TD*%
%TA.AperFunction,SMDPad,CuDef*%
%ADD19R,0.250000X1.905000*%
%TD*%
%TA.AperFunction,ComponentPad*%
%ADD20C,1.500000*%
%TD*%
%TA.AperFunction,ViaPad*%
%ADD21C,0.800000*%
%TD*%
%TA.AperFunction,Conductor*%
%ADD22C,0.250000*%
%TD*%
G04 APERTURE END LIST*
D10*
%TO.P,Q1,1,G*%
%TO.N,Net-(Q1-G)*%
X240788025Y-46132500D03*
%TO.P,Q1,2,S*%
%TO.N,GND*%
X242688025Y-46132500D03*
%TO.P,Q1,3,D*%
%TO.N,Net-(Q1-D)*%
X241738025Y-44257500D03*
%TD*%
D11*
%TO.P,J1,1,Pin_1*%
%TO.N,CS*%
X237750000Y-64500000D03*
D12*
%TO.P,J1,2,Pin_2*%
%TO.N,DATA*%
X236500000Y-64500000D03*
%TO.P,J1,3,Pin_3*%
%TO.N,WR*%
X235250000Y-64500000D03*
%TO.P,J1,4,Pin_4*%
%TO.N,GND*%
X234000000Y-64500000D03*
%TO.P,J1,5,Pin_5*%
%TO.N,+5V*%
X232750000Y-64500000D03*
%TO.P,J1,6,Pin_6*%
%TO.N,P_LED*%
X231500000Y-64500000D03*
%TD*%
D13*
%TO.P,C1,1*%
%TO.N,+5V*%
X240038025Y-51857500D03*
%TO.P,C1,2*%
%TO.N,GND*%
X240038025Y-52817500D03*
%TD*%
D14*
%TO.P,R4,1*%
%TO.N,Net-(U1-Led+)*%
X243000000Y-57000000D03*
%TO.P,R4,2*%
%TO.N,+5V*%
X243000000Y-59925000D03*
%TD*%
D15*
%TO.P,R3,1*%
%TO.N,Net-(Q1-G)*%
X241738025Y-51857500D03*
%TO.P,R3,2*%
%TO.N,GND*%
X241738025Y-52877500D03*
%TD*%
%TO.P,R2,1*%
%TO.N,Net-(Q1-G)*%
X241738025Y-49657500D03*
%TO.P,R2,2*%
%TO.N,P_LED*%
X241738025Y-50677500D03*
%TD*%
D16*
%TO.P,R1,1*%
%TO.N,+5V*%
X240038025Y-50657500D03*
%TO.P,R1,2*%
%TO.N,Net-(U2-VLCD)*%
X240038025Y-49637500D03*
%TD*%
D17*
%TO.P,U2,1,SEG7*%
%TO.N,S8*%
X238038025Y-60562500D03*
%TO.P,U2,2,SEG6*%
%TO.N,S7*%
X238038025Y-59927500D03*
%TO.P,U2,3,SEG5*%
%TO.N,S6*%
X238038025Y-59292500D03*
%TO.P,U2,4,SEG4*%
%TO.N,S5*%
X238038025Y-58657500D03*
%TO.P,U2,5,SEG3*%
%TO.N,S4*%
X238038025Y-58022500D03*
%TO.P,U2,6,SEG2*%
%TO.N,S3*%
X238038025Y-57387500D03*
%TO.P,U2,7,SEG1*%
%TO.N,S2*%
X238038025Y-56752500D03*
%TO.P,U2,8,SEG0*%
%TO.N,S1*%
X238038025Y-56117500D03*
%TO.P,U2,9,CS*%
%TO.N,CS*%
X238038025Y-55482500D03*
%TO.P,U2,10,RD*%
%TO.N,unconnected-(U2-RD-Pad10)*%
X238038025Y-54847500D03*
%TO.P,U2,11,WR*%
%TO.N,WR*%
X238038025Y-54212500D03*
%TO.P,U2,12,DATA*%
%TO.N,DATA*%
X238038025Y-53577500D03*
%TO.P,U2,13,VSS*%
%TO.N,GND*%
X238038025Y-52942500D03*
%TO.P,U2,14,OSCO*%
%TO.N,unconnected-(U2-OSCO-Pad14)*%
X238038025Y-52307500D03*
%TO.P,U2,15,OSCI*%
%TO.N,unconnected-(U2-OSCI-Pad15)*%
X238038025Y-51672500D03*
%TO.P,U2,16,VLCD*%
%TO.N,Net-(U2-VLCD)*%
X238038025Y-51037500D03*
%TO.P,U2,17,VDD*%
%TO.N,+5V*%
X238038025Y-50402500D03*
%TO.P,U2,18,IRQ*%
%TO.N,unconnected-(U2-IRQ-Pad18)*%
X238038025Y-49767500D03*
%TO.P,U2,19,BZ*%
%TO.N,unconnected-(U2-BZ-Pad19)*%
X238038025Y-49132500D03*
%TO.P,U2,20,BZ*%
%TO.N,unconnected-(U2-BZ-Pad20)*%
X238038025Y-48497500D03*
%TO.P,U2,21,COM0*%
%TO.N,COM0*%
X238038025Y-47862500D03*
%TO.P,U2,22,COM1*%
%TO.N,COM1*%
X238038025Y-47227500D03*
%TO.P,U2,23,COM2*%
%TO.N,unconnected-(U2-COM2-Pad23)*%
X238038025Y-46592500D03*
%TO.P,U2,24,COM3*%
%TO.N,unconnected-(U2-COM3-Pad24)*%
X238038025Y-45957500D03*
%TO.P,U2,25,SEG31*%
%TO.N,unconnected-(U2-SEG31-Pad25)*%
X228638025Y-45957500D03*
%TO.P,U2,26,SEG30*%
%TO.N,unconnected-(U2-SEG30-Pad26)*%
X228638025Y-46592500D03*
%TO.P,U2,27,SEG29*%
%TO.N,unconnected-(U2-SEG29-Pad27)*%
X228638025Y-47227500D03*
%TO.P,U2,28,SEG28*%
%TO.N,unconnected-(U2-SEG28-Pad28)*%
X228638025Y-47862500D03*
%TO.P,U2,29,SEG27*%
%TO.N,unconnected-(U2-SEG27-Pad29)*%
X228638025Y-48497500D03*
%TO.P,U2,30,SEG26*%
%TO.N,unconnected-(U2-SEG26-Pad30)*%
X228638025Y-49132500D03*
%TO.P,U2,31,SEG25*%
%TO.N,unconnected-(U2-SEG25-Pad31)*%
X228638025Y-49767500D03*
%TO.P,U2,32,SEG24*%
%TO.N,unconnected-(U2-SEG24-Pad32)*%
X228638025Y-50402500D03*
%TO.P,U2,33,SEG23*%
%TO.N,unconnected-(U2-SEG23-Pad33)*%
X228638025Y-51037500D03*
%TO.P,U2,34,SEG22*%
%TO.N,unconnected-(U2-SEG22-Pad34)*%
X228638025Y-51672500D03*
%TO.P,U2,35,SEG21*%
%TO.N,unconnected-(U2-SEG21-Pad35)*%
X228638025Y-52307500D03*
%TO.P,U2,36,SEG20*%
%TO.N,unconnected-(U2-SEG20-Pad36)*%
X228638025Y-52942500D03*
%TO.P,U2,37,SEG19*%
%TO.N,unconnected-(U2-SEG19-Pad37)*%
X228638025Y-53577500D03*
%TO.P,U2,38,SEG18*%
%TO.N,unconnected-(U2-SEG18-Pad38)*%
X228638025Y-54212500D03*
%TO.P,U2,39,SEG17*%
%TO.N,unconnected-(U2-SEG17-Pad39)*%
X228638025Y-54847500D03*
%TO.P,U2,40,SEG16*%
%TO.N,unconnected-(U2-SEG16-Pad40)*%
X228638025Y-55482500D03*
%TO.P,U2,41,SEG15*%
%TO.N,unconnected-(U2-SEG15-Pad41)*%
X228638025Y-56117500D03*
%TO.P,U2,42,SEG14*%
%TO.N,unconnected-(U2-SEG14-Pad42)*%
X228638025Y-56752500D03*
%TO.P,U2,43,SEG13*%
%TO.N,unconnected-(U2-SEG13-Pad43)*%
X228638025Y-57387500D03*
%TO.P,U2,44,SEG12*%
%TO.N,unconnected-(U2-SEG12-Pad44)*%
X228638025Y-58022500D03*
%TO.P,U2,45,SEG11*%
%TO.N,unconnected-(U2-SEG11-Pad45)*%
X228638025Y-58657500D03*
%TO.P,U2,46,SEG10*%
%TO.N,S11*%
X228638025Y-59292500D03*
%TO.P,U2,47,SEG9*%
%TO.N,S10*%
X228638025Y-59927500D03*
%TO.P,U2,48,SEG8*%
%TO.N,S9*%
X228638025Y-60562500D03*
%TD*%
D18*
%TO.P,U1,*%
%TO.N,*%
X229875000Y-22900000D03*
X230005000Y-39537000D03*
X240035000Y-22900000D03*
D19*
%TO.P,U1,1,1*%
%TO.N,S11*%
X231442600Y-24851500D03*
%TO.P,U1,2,2*%
%TO.N,S10*%
X232027600Y-24851500D03*
%TO.P,U1,3,3*%
%TO.N,S9*%
X232612600Y-24851500D03*
%TO.P,U1,4,4*%
%TO.N,COM1*%
X233197600Y-24851500D03*
%TO.P,U1,5,5*%
%TO.N,S8*%
X233782600Y-24851500D03*
%TO.P,U1,6,6*%
%TO.N,S7*%
X234367600Y-24851500D03*
%TO.P,U1,7,7*%
%TO.N,S6*%
X234952600Y-24851500D03*
%TO.P,U1,8,8*%
%TO.N,COM0*%
X235537600Y-24851500D03*
%TO.P,U1,9,9*%
%TO.N,S5*%
X236122600Y-24851500D03*
%TO.P,U1,10,10*%
%TO.N,S4*%
X236707600Y-24851500D03*
%TO.P,U1,11,11*%
%TO.N,S3*%
X237292600Y-24851500D03*
%TO.P,U1,12,12*%
%TO.N,S2*%
X237877600Y-24851500D03*
%TO.P,U1,13,13*%
%TO.N,S1*%
X238462600Y-24851500D03*
D20*
%TO.P,U1,14,Led+*%
%TO.N,Net-(U1-Led+)*%
X233745000Y-42585000D03*
%TO.P,U1,15,Led-*%
%TO.N,Net-(Q1-D)*%
X236285000Y-42585000D03*
%TD*%
D21*
%TO.N,+5V*%
X235648025Y-49967500D03*
X232838025Y-62700000D03*
%TO.N,GND*%
X235000000Y-68000000D03*
X236000000Y-52000000D03*
X242200000Y-54100000D03*
X234000000Y-62000000D03*
%TO.N,DATA*%
X236638025Y-53857500D03*
X236338025Y-62757500D03*
%TO.N,WR*%
X235362324Y-62540677D03*
X235613525Y-55057500D03*
%TO.N,Net-(U2-VLCD)*%
X239221459Y-51169185D03*
X239288525Y-49678000D03*
%TO.N,S11*%
X232238025Y-30257500D03*
X230738025Y-58257500D03*
%TO.N,S10*%
X230725477Y-59445449D03*
X232438025Y-29157500D03*
%TO.N,S9*%
X233538025Y-29157500D03*
X230738025Y-60457500D03*
%TO.N,COM1*%
X233893437Y-27898505D03*
X239415090Y-47073386D03*
%TO.N,S8*%
X239738025Y-60457500D03*
X235007528Y-27987997D03*
%TO.N,COM0*%
X235838025Y-22757500D03*
X240738025Y-47857500D03*
%TD*%
D22*
%TO.N,+5V*%
X232738025Y-64607500D02*
X232738025Y-62857500D01*
X240038025Y-51857500D02*
X240038025Y-50657500D01*
X239000000Y-65507829D02*
X239000000Y-64636396D01*
X242075000Y-59925000D02*
X243000000Y-59925000D01*
X231200000Y-62700000D02*
X230800000Y-63100000D01*
X230800000Y-65445383D02*
X231657552Y-66302935D01*
X231657552Y-66302935D02*
X231697065Y-66302935D01*
X240038025Y-51857500D02*
X240348024Y-51857500D01*
X232838025Y-62700000D02*
X231200000Y-62700000D01*
X241500000Y-62136396D02*
X241500000Y-60500000D01*
X239783025Y-50402500D02*
X238038025Y-50402500D01*
X240038025Y-50657500D02*
X239783025Y-50402500D01*
X241500000Y-60500000D02*
X242075000Y-59925000D01*
X236083025Y-50402500D02*
X238038025Y-50402500D01*
X239000000Y-64636396D02*
X241500000Y-62136396D01*
X235648025Y-49967500D02*
X236083025Y-50402500D01*
X232738025Y-62857500D02*
X232838025Y-62757500D01*
X238057829Y-66450000D02*
X239000000Y-65507829D01*
X231697065Y-66302935D02*
X231844130Y-66450000D01*
X230800000Y-63100000D02*
X230800000Y-65445383D01*
X231844130Y-66450000D02*
X238057829Y-66450000D01*
%TO.N,GND*%
X233988025Y-64607500D02*
X233988025Y-62011975D01*
X242988025Y-46432500D02*
X242688025Y-46132500D01*
X242988025Y-51627500D02*
X242988025Y-46432500D01*
X239913025Y-52942500D02*
X240038025Y-52817500D01*
X238038025Y-52942500D02*
X239913025Y-52942500D01*
X236942500Y-52942500D02*
X236000000Y-52000000D01*
X238038025Y-52942500D02*
X236942500Y-52942500D01*
X241738025Y-53638025D02*
X242200000Y-54100000D01*
X241738025Y-52877500D02*
X242988025Y-51627500D01*
X233988025Y-62011975D02*
X234000000Y-62000000D01*
X241738025Y-52877500D02*
X241738025Y-53638025D01*
%TO.N,CS*%
X238888025Y-55482500D02*
X238038025Y-55482500D01*
X240463025Y-61882500D02*
X240463025Y-57057500D01*
X240463025Y-57057500D02*
X238888025Y-55482500D01*
X237738025Y-64607500D02*
X240463025Y-61882500D01*
%TO.N,DATA*%
X236488025Y-62907500D02*
X236338025Y-62757500D01*
X236638025Y-53857500D02*
X236918025Y-53577500D01*
X236488025Y-64607500D02*
X236488025Y-62907500D01*
X236918025Y-53577500D02*
X238038025Y-53577500D01*
%TO.N,WR*%
X235238025Y-62664976D02*
X235362324Y-62540677D01*
X236538025Y-55057500D02*
X237383025Y-54212500D01*
X237383025Y-54212500D02*
X238038025Y-54212500D01*
X235238025Y-64607500D02*
X235238025Y-62664976D01*
X235613525Y-55057500D02*
X236538025Y-55057500D01*
%TO.N,P_LED*%
X241000000Y-60913025D02*
X241000000Y-51415525D01*
X241000000Y-51415525D02*
X241738025Y-50677500D01*
X237871433Y-66000000D02*
X238500000Y-65371433D01*
X240913025Y-62086975D02*
X240913025Y-61000000D01*
X238500000Y-65371433D02*
X238500000Y-64500000D01*
X231488025Y-64607500D02*
X231488025Y-65457499D01*
X231488025Y-65457499D02*
X232030526Y-66000000D01*
X240913025Y-61000000D02*
X241000000Y-60913025D01*
X232030526Y-66000000D02*
X237871433Y-66000000D01*
X238500000Y-64500000D02*
X240913025Y-62086975D01*
%TO.N,Net-(Q1-G)*%
X242383025Y-50302500D02*
X241738025Y-49657500D01*
X241738025Y-51857500D02*
X242383025Y-51212500D01*
X242383025Y-51212500D02*
X242383025Y-50302500D01*
X241738025Y-49657500D02*
X241738025Y-47082500D01*
X241738025Y-47082500D02*
X240788025Y-46132500D01*
%TO.N,Net-(Q1-D)*%
X241738025Y-44257500D02*
X240065525Y-42585000D01*
X240065525Y-42585000D02*
X236285000Y-42585000D01*
%TO.N,Net-(U2-VLCD)*%
X239329025Y-49637500D02*
X239288525Y-49678000D01*
X238038025Y-51037500D02*
X239089774Y-51037500D01*
X239089774Y-51037500D02*
X239221459Y-51169185D01*
X240038025Y-49637500D02*
X239329025Y-49637500D01*
%TO.N,S11*%
X230738025Y-58257500D02*
X229703025Y-59292500D01*
X231442600Y-29462075D02*
X232238025Y-30257500D01*
X231442600Y-24851500D02*
X231442600Y-29462075D01*
X229703025Y-59292500D02*
X228638025Y-59292500D01*
%TO.N,S10*%
X228638025Y-59927500D02*
X230243426Y-59927500D01*
X230243426Y-59927500D02*
X230725477Y-59445449D01*
X232027600Y-28747075D02*
X232027600Y-24851500D01*
X232438025Y-29157500D02*
X232027600Y-28747075D01*
%TO.N,S9*%
X230738025Y-60457500D02*
X228743025Y-60457500D01*
X228743025Y-60457500D02*
X228638025Y-60562500D01*
X232612600Y-28232075D02*
X233538025Y-29157500D01*
X232612600Y-24851500D02*
X232612600Y-28232075D01*
%TO.N,COM1*%
X239415090Y-47073386D02*
X239260976Y-47227500D01*
X239260976Y-47227500D02*
X238038025Y-47227500D01*
X233197600Y-27202668D02*
X233893437Y-27898505D01*
X233197600Y-24851500D02*
X233197600Y-27202668D01*
%TO.N,S8*%
X239738025Y-60457500D02*
X238143025Y-60457500D01*
X238143025Y-60457500D02*
X238038025Y-60562500D01*
X233782600Y-24851500D02*
X233782600Y-26763069D01*
X233782600Y-26763069D02*
X235007528Y-27987997D01*
%TO.N,S7*%
X229838025Y-54975876D02*
X234789649Y-59927500D01*
X235738025Y-37521104D02*
X235319827Y-37939302D01*
X234367600Y-26323471D02*
X235738025Y-27693896D01*
X229838025Y-41157500D02*
X229838025Y-54975876D01*
X228918000Y-39086749D02*
X228918000Y-40237475D01*
X235738025Y-27693896D02*
X235738025Y-37521104D01*
X234367600Y-24851500D02*
X234367600Y-26323471D01*
X230065447Y-37939302D02*
X228918000Y-39086749D01*
X235319827Y-37939302D02*
X230065447Y-37939302D01*
X234789649Y-59927500D02*
X238038025Y-59927500D01*
X228918000Y-40237475D02*
X229838025Y-41157500D01*
%TO.N,S6*%
X236212600Y-37682925D02*
X236212600Y-27532075D01*
X235238025Y-38657500D02*
X236212600Y-37682925D01*
X230338025Y-54839480D02*
X230338025Y-41075520D01*
X234952600Y-26272075D02*
X234952600Y-24851500D01*
X236212600Y-27532075D02*
X234952600Y-26272075D01*
X238038025Y-59292500D02*
X234791045Y-59292500D01*
X230338025Y-41075520D02*
X232756045Y-38657500D01*
X232756045Y-38657500D02*
X235238025Y-38657500D01*
X234791045Y-59292500D02*
X230338025Y-54839480D01*
%TO.N,COM0*%
X235537600Y-23057925D02*
X235838025Y-22757500D01*
X240733025Y-47862500D02*
X240738025Y-47857500D01*
X235537600Y-24851500D02*
X235537600Y-23057925D01*
X238038025Y-47862500D02*
X240733025Y-47862500D01*
%TO.N,S5*%
X238038025Y-58657500D02*
X234792441Y-58657500D01*
X230838025Y-41211916D02*
X232892441Y-39157500D01*
X232892441Y-39157500D02*
X235401629Y-39157500D01*
X236662600Y-27254867D02*
X236122600Y-26714867D01*
X234792441Y-58657500D02*
X230838025Y-54703084D01*
X236662600Y-37896529D02*
X236662600Y-27254867D01*
X230838025Y-54703084D02*
X230838025Y-41211916D01*
X236122600Y-26714867D02*
X236122600Y-24851500D01*
X235401629Y-39157500D02*
X236662600Y-37896529D01*
%TO.N,S4*%
X236707600Y-26663471D02*
X236707600Y-24851500D01*
X237112600Y-27068471D02*
X236707600Y-26663471D01*
X235588025Y-39607500D02*
X237112600Y-38082925D01*
X238038025Y-58022500D02*
X234793837Y-58022500D01*
X233078837Y-39607500D02*
X235588025Y-39607500D01*
X231288025Y-41398312D02*
X233078837Y-39607500D01*
X234793837Y-58022500D02*
X231288025Y-54516688D01*
X237112600Y-38082925D02*
X237112600Y-27068471D01*
X231288025Y-54516688D02*
X231288025Y-41398312D01*
%TO.N,S3*%
X237292600Y-26612075D02*
X237292600Y-24851500D01*
X231738025Y-41584708D02*
X233265233Y-40057500D01*
X238038025Y-57387500D02*
X234795233Y-57387500D01*
X237562600Y-38332925D02*
X237562600Y-26882075D01*
X237562600Y-26882075D02*
X237292600Y-26612075D01*
X234795233Y-57387500D02*
X231738025Y-54330292D01*
X231738025Y-54330292D02*
X231738025Y-41584708D01*
X235838025Y-40057500D02*
X237562600Y-38332925D01*
X233265233Y-40057500D02*
X235838025Y-40057500D01*
%TO.N,S2*%
X238012600Y-26657500D02*
X237877600Y-26522500D01*
X232220000Y-41739129D02*
X233451629Y-40507500D01*
X232220000Y-54175871D02*
X232220000Y-41739129D01*
X234796629Y-56752500D02*
X232220000Y-54175871D01*
X236051629Y-40507500D02*
X238012600Y-38546529D01*
X238012600Y-38546529D02*
X238012600Y-26657500D01*
X233451629Y-40507500D02*
X236051629Y-40507500D01*
X237877600Y-26522500D02*
X237877600Y-24851500D01*
X238038025Y-56752500D02*
X234796629Y-56752500D01*
%TO.N,S1*%
X233638025Y-40957500D02*
X232670000Y-41925525D01*
X236238025Y-40957500D02*
X233638025Y-40957500D01*
X232738025Y-54057500D02*
X234798025Y-56117500D01*
X232670000Y-41925525D02*
X232670000Y-53989475D01*
X238462600Y-24851500D02*
X238462600Y-38732925D01*
X232670000Y-53989475D02*
X232738025Y-54057500D01*
X234798025Y-56117500D02*
X238038025Y-56117500D01*
X238462600Y-38732925D02*
X236238025Y-40957500D01*
%TO.N,Net-(U1-Led+)*%
X241607500Y-41407500D02*
X234922500Y-41407500D01*
X243438025Y-56561975D02*
X243438025Y-43238025D01*
X243100000Y-42900000D02*
X241607500Y-41407500D01*
X243438025Y-43238025D02*
X243100000Y-42900000D01*
X234922500Y-41407500D02*
X233745000Y-42585000D01*
X243000000Y-57000000D02*
X243438025Y-56561975D01*
%TD*%
%TA.AperFunction,Conductor*%
%TO.N,GND*%
G36*
X233788060Y-64641614D02*
G01*
X233858386Y-64711940D01*
X233950272Y-64750000D01*
X233874000Y-64750000D01*
X233806961Y-64730315D01*
X233761206Y-64677511D01*
X233750000Y-64626000D01*
X233750000Y-64549728D01*
X233788060Y-64641614D01*
G37*
%TD.AperFunction*%
%TA.AperFunction,Conductor*%
G36*
X234250000Y-64626000D02*
G01*
X234230315Y-64693039D01*
X234177511Y-64738794D01*
X234126000Y-64750000D01*
X234049728Y-64750000D01*
X234141614Y-64711940D01*
X234211940Y-64641614D01*
X234250000Y-64549728D01*
X234250000Y-64626000D01*
G37*
%TD.AperFunction*%
%TA.AperFunction,Conductor*%
G36*
X242731868Y-51850773D02*
G01*
X242787798Y-51892649D01*
X242812210Y-51958115D01*
X242812525Y-51966951D01*
X242812525Y-55813000D01*
X242792840Y-55880039D01*
X242740036Y-55925794D01*
X242688525Y-55937000D01*
X242324998Y-55937000D01*
X242324980Y-55937001D01*
X242222203Y-55947500D01*
X242222200Y-55947501D01*
X242055668Y-56002685D01*
X242055663Y-56002687D01*
X241906342Y-56094789D01*
X241837181Y-56163951D01*
X241775858Y-56197436D01*
X241706166Y-56192452D01*
X241650233Y-56150580D01*
X241625816Y-56085116D01*
X241625500Y-56076270D01*
X241625500Y-53647430D01*
X241988025Y-53647430D01*
X242023147Y-53644667D01*
X242023153Y-53644666D01*
X242177213Y-53599907D01*
X242177216Y-53599906D01*
X242315310Y-53518238D01*
X242315319Y-53518231D01*
X242428756Y-53404794D01*
X242428763Y-53404785D01*
X242510429Y-53266694D01*
X242550869Y-53127500D01*
X241988025Y-53127500D01*
X241988025Y-53647430D01*
X241625500Y-53647430D01*
X241625500Y-52751999D01*
X241645185Y-52684960D01*
X241697989Y-52639205D01*
X241749500Y-52627999D01*
X241987193Y-52627999D01*
X241987205Y-52627999D01*
X241987218Y-52627998D01*
X241988693Y-52627882D01*
X241998418Y-52627500D01*
X242550869Y-52627500D01*
X242510429Y-52488305D01*
X242476606Y-52431112D01*
X242459423Y-52363388D01*
X242476607Y-52304869D01*
X242510892Y-52246896D01*
X242510894Y-52246893D01*
X242555690Y-52092704D01*
X242558525Y-52056681D01*
X242558524Y-51972950D01*
X242578208Y-51905913D01*
X242594841Y-51885272D01*
X242600853Y-51879260D01*
X242662177Y-51845783D01*
X242731868Y-51850773D01*
G37*
%TD.AperFunction*%
%TA.AperFunction,Conductor*%
G36*
X240317539Y-52657685D02*
G01*
X240363294Y-52710489D01*
X240374500Y-52762000D01*
X240374500Y-52943500D01*
X240354815Y-53010539D01*
X240302011Y-53056294D01*
X240298458Y-53057066D01*
X240288025Y-53067500D01*
X240288025Y-53596290D01*
X240307120Y-53613943D01*
X240309147Y-53614369D01*
X240358904Y-53663420D01*
X240374500Y-53723624D01*
X240374500Y-55785022D01*
X240354815Y-55852061D01*
X240302011Y-55897816D01*
X240232853Y-55907760D01*
X240169297Y-55878735D01*
X240162819Y-55872703D01*
X239380953Y-55090838D01*
X239380950Y-55090834D01*
X239380950Y-55090835D01*
X239373883Y-55083768D01*
X239373883Y-55083767D01*
X239286758Y-54996642D01*
X239286757Y-54996641D01*
X239286756Y-54996640D01*
X239225622Y-54955792D01*
X239225619Y-54955790D01*
X239193630Y-54934414D01*
X239148826Y-54880800D01*
X239138524Y-54831314D01*
X239138524Y-54599629D01*
X239138522Y-54599610D01*
X239132464Y-54543255D01*
X239132464Y-54516744D01*
X239138524Y-54460380D01*
X239138525Y-54460373D01*
X239138524Y-53964628D01*
X239132464Y-53908254D01*
X239132464Y-53881744D01*
X239138524Y-53825380D01*
X239138525Y-53825373D01*
X239138524Y-53431710D01*
X239158208Y-53364672D01*
X239211012Y-53318917D01*
X239280171Y-53308973D01*
X239343726Y-53337998D01*
X239352689Y-53347461D01*
X239352789Y-53347362D01*
X239472641Y-53467214D01*
X239472650Y-53467221D01*
X239611829Y-53549531D01*
X239767114Y-53594645D01*
X239788025Y-53596289D01*
X239788025Y-52762000D01*
X239807710Y-52694961D01*
X239860514Y-52649206D01*
X239912025Y-52638000D01*
X240250500Y-52638000D01*
X240317539Y-52657685D01*
G37*
%TD.AperFunction*%
%TA.AperFunction,Conductor*%
G36*
X235082865Y-43010041D02*
G01*
X235127381Y-43061414D01*
X235197898Y-43212639D01*
X235323402Y-43391877D01*
X235478123Y-43546598D01*
X235657361Y-43672102D01*
X235855670Y-43764575D01*
X236067023Y-43821207D01*
X236249926Y-43837208D01*
X236284998Y-43840277D01*
X236285000Y-43840277D01*
X236285002Y-43840277D01*
X236313254Y-43837805D01*
X236502977Y-43821207D01*
X236714330Y-43764575D01*
X236912639Y-43672102D01*
X237091877Y-43546598D01*
X237246598Y-43391877D01*
X237336575Y-43263375D01*
X237391151Y-43219752D01*
X237438149Y-43210500D01*
X239755073Y-43210500D01*
X239822112Y-43230185D01*
X239842754Y-43246819D01*
X240901206Y-44305271D01*
X240934691Y-44366594D01*
X240937525Y-44392952D01*
X240937525Y-44770500D01*
X240917840Y-44837539D01*
X240865036Y-44883294D01*
X240813525Y-44894500D01*
X240572323Y-44894500D01*
X240535457Y-44897401D01*
X240535451Y-44897402D01*
X240377631Y-44943254D01*
X240377628Y-44943255D01*
X240236162Y-45026917D01*
X240236154Y-45026923D01*
X240119948Y-45143129D01*
X240119942Y-45143137D01*
X240036280Y-45284603D01*
X240036279Y-45284606D01*
X239990427Y-45442426D01*
X239990426Y-45442432D01*
X239987525Y-45479298D01*
X239987525Y-46151587D01*
X239967840Y-46218626D01*
X239915036Y-46264381D01*
X239845878Y-46274325D01*
X239813089Y-46264866D01*
X239694897Y-46212243D01*
X239694892Y-46212241D01*
X239541878Y-46179718D01*
X239509736Y-46172886D01*
X239320444Y-46172886D01*
X239288301Y-46179717D01*
X239218636Y-46174401D01*
X239162903Y-46132263D01*
X239138799Y-46066682D01*
X239138524Y-46058448D01*
X239138524Y-45709628D01*
X239132116Y-45650017D01*
X239081821Y-45515169D01*
X239081820Y-45515168D01*
X239081818Y-45515164D01*
X238995572Y-45399955D01*
X238995569Y-45399952D01*
X238880360Y-45313706D01*
X238880353Y-45313702D01*
X238745507Y-45263408D01*
X238745508Y-45263408D01*
X238685908Y-45257001D01*
X238685906Y-45257000D01*
X238685898Y-45257000D01*
X238685889Y-45257000D01*
X237390154Y-45257000D01*
X237390148Y-45257001D01*
X237330541Y-45263408D01*
X237195696Y-45313702D01*
X237195689Y-45313706D01*
X237080480Y-45399952D01*
X237080477Y-45399955D01*
X236994231Y-45515164D01*
X236994227Y-45515171D01*
X236943935Y-45650013D01*
X236943934Y-45650017D01*
X236937525Y-45709627D01*
X236937525Y-45709634D01*
X236937525Y-45709635D01*
X236937525Y-46205370D01*
X236937526Y-46205376D01*
X236943586Y-46261749D01*
X236943586Y-46288253D01*
X236937525Y-46344627D01*
X236937525Y-46344632D01*
X236937525Y-46344633D01*
X236937525Y-46840370D01*
X236937526Y-46840376D01*
X236943586Y-46896749D01*
X236943586Y-46923253D01*
X236937525Y-46979627D01*
X236937525Y-46979632D01*
X236937525Y-46979633D01*
X236937525Y-47475370D01*
X236937526Y-47475376D01*
X236943586Y-47531749D01*
X236943586Y-47558253D01*
X236937525Y-47614627D01*
X236937525Y-47614632D01*
X236937525Y-47614633D01*
X236937525Y-48110370D01*
X236937526Y-48110376D01*
X236943586Y-48166749D01*
X236943586Y-48193253D01*
X236937525Y-48249627D01*
X236937525Y-48249632D01*
X236937525Y-48249633D01*
X236937525Y-48745370D01*
X236937526Y-48745376D01*
X236943586Y-48801749D01*
X236943586Y-48828253D01*
X236937525Y-48884627D01*
X236937525Y-48884632D01*
X236937525Y-48884633D01*
X236937525Y-49380370D01*
X236937526Y-49380376D01*
X236943586Y-49436749D01*
X236943586Y-49463253D01*
X236937525Y-49519627D01*
X236937525Y-49641761D01*
X236937526Y-49652999D01*
X236917842Y-49720039D01*
X236865038Y-49765794D01*
X236813526Y-49777000D01*
X236623061Y-49777000D01*
X236556022Y-49757315D01*
X236510267Y-49704511D01*
X236505130Y-49691318D01*
X236475206Y-49599221D01*
X236475203Y-49599215D01*
X236445662Y-49548048D01*
X236380558Y-49435284D01*
X236253896Y-49294612D01*
X236253895Y-49294611D01*
X236100759Y-49183351D01*
X236100754Y-49183348D01*
X235927832Y-49106357D01*
X235927827Y-49106355D01*
X235782026Y-49075365D01*
X235742671Y-49067000D01*
X235553379Y-49067000D01*
X235520922Y-49073898D01*
X235368222Y-49106355D01*
X235368217Y-49106357D01*
X235195295Y-49183348D01*
X235195290Y-49183351D01*
X235042154Y-49294611D01*
X234915491Y-49435285D01*
X234820846Y-49599215D01*
X234820843Y-49599222D01*
X234769476Y-49757315D01*
X234762351Y-49779244D01*
X234742565Y-49967500D01*
X234762351Y-50155756D01*
X234762352Y-50155759D01*
X234820843Y-50335777D01*
X234820846Y-50335784D01*
X234915492Y-50499716D01*
X235017862Y-50613409D01*
X235042154Y-50640388D01*
X235195290Y-50751648D01*
X235195295Y-50751651D01*
X235368217Y-50828642D01*
X235368222Y-50828644D01*
X235553379Y-50868000D01*
X235616209Y-50868000D01*
X235683248Y-50887685D01*
X235685100Y-50888898D01*
X235746115Y-50929667D01*
X235786740Y-50956812D01*
X235844964Y-50980929D01*
X235900573Y-51003963D01*
X235960996Y-51015981D01*
X236021418Y-51028000D01*
X236021419Y-51028000D01*
X236813525Y-51028000D01*
X236880564Y-51047685D01*
X236926319Y-51100489D01*
X236937525Y-51151999D01*
X236937525Y-51285369D01*
X236937526Y-51285376D01*
X236943586Y-51341749D01*
X236943586Y-51368253D01*
X236937525Y-51424627D01*
X236937525Y-51424632D01*
X236937525Y-51424633D01*
X236937525Y-51920370D01*
X236937526Y-51920376D01*
X236943586Y-51976749D01*
X236943586Y-52003253D01*
X236937525Y-52059627D01*
X236937525Y-52059632D01*
X236937525Y-52059633D01*
X236937525Y-52555370D01*
X236937526Y-52555376D01*
X236943838Y-52614092D01*
X236943838Y-52640599D01*
X236938025Y-52694669D01*
X236938025Y-52834002D01*
X236918340Y-52901041D01*
X236865536Y-52946796D01*
X236838213Y-52955620D01*
X236805355Y-52962155D01*
X236755388Y-52961828D01*
X236732672Y-52957000D01*
X236732671Y-52957000D01*
X236543379Y-52957000D01*
X236510922Y-52963898D01*
X236358222Y-52996355D01*
X236358217Y-52996357D01*
X236185295Y-53073348D01*
X236185290Y-53073351D01*
X236032154Y-53184611D01*
X235905491Y-53325285D01*
X235810846Y-53489215D01*
X235810843Y-53489222D01*
X235754243Y-53663420D01*
X235752351Y-53669244D01*
X235732565Y-53857500D01*
X235749648Y-54020041D01*
X235737080Y-54088768D01*
X235689348Y-54139792D01*
X235626328Y-54157000D01*
X235518879Y-54157000D01*
X235486422Y-54163898D01*
X235333722Y-54196355D01*
X235333717Y-54196357D01*
X235160795Y-54273348D01*
X235160790Y-54273351D01*
X235007654Y-54384611D01*
X234880991Y-54525285D01*
X234786346Y-54689215D01*
X234786343Y-54689222D01*
X234727851Y-54869242D01*
X234727851Y-54869244D01*
X234727111Y-54876282D01*
X234700523Y-54940895D01*
X234643224Y-54980877D01*
X234573405Y-54983533D01*
X234516110Y-54950995D01*
X233331819Y-53766704D01*
X233298334Y-53705381D01*
X233295500Y-53679023D01*
X233295500Y-43920770D01*
X233315185Y-43853731D01*
X233367989Y-43807976D01*
X233437147Y-43798032D01*
X233451581Y-43800992D01*
X233527023Y-43821207D01*
X233714787Y-43837633D01*
X233744998Y-43840277D01*
X233745000Y-43840277D01*
X233745002Y-43840277D01*
X233773254Y-43837805D01*
X233962977Y-43821207D01*
X234174330Y-43764575D01*
X234372639Y-43672102D01*
X234551877Y-43546598D01*
X234706598Y-43391877D01*
X234832102Y-43212639D01*
X234902618Y-43061414D01*
X234948790Y-43008977D01*
X235015984Y-42989825D01*
X235082865Y-43010041D01*
G37*
%TD.AperFunction*%
%TA.AperFunction,Conductor*%
G36*
X242699083Y-43394556D02*
G01*
X242734933Y-43419523D01*
X242776206Y-43460796D01*
X242809691Y-43522119D01*
X242812525Y-43548477D01*
X242812525Y-49548048D01*
X242792840Y-49615087D01*
X242740036Y-49660842D01*
X242670878Y-49670786D01*
X242607322Y-49641761D01*
X242600844Y-49635729D01*
X242594843Y-49629728D01*
X242561358Y-49568405D01*
X242558524Y-49542047D01*
X242558524Y-49458331D01*
X242558523Y-49458306D01*
X242557081Y-49439983D01*
X242555690Y-49422296D01*
X242510894Y-49268107D01*
X242429160Y-49129902D01*
X242429158Y-49129900D01*
X242429155Y-49129896D01*
X242399844Y-49100585D01*
X242366359Y-49039262D01*
X242363525Y-49012904D01*
X242363525Y-47490401D01*
X242383210Y-47423362D01*
X242403354Y-47399345D01*
X242438025Y-47367295D01*
X242438025Y-46382500D01*
X241973977Y-46382500D01*
X241906938Y-46362815D01*
X241886296Y-46346181D01*
X241624844Y-46084729D01*
X241591359Y-46023406D01*
X241588525Y-45997048D01*
X241588525Y-45619500D01*
X241608210Y-45552461D01*
X241661014Y-45506706D01*
X241712525Y-45495500D01*
X241764025Y-45495500D01*
X241831064Y-45515185D01*
X241876819Y-45567989D01*
X241888025Y-45619500D01*
X241888025Y-45882500D01*
X242438025Y-45882500D01*
X242438025Y-45226814D01*
X242455292Y-45163694D01*
X242489769Y-45105398D01*
X242535623Y-44947569D01*
X242538525Y-44910694D01*
X242538525Y-43604306D01*
X242535623Y-43567431D01*
X242528176Y-43541798D01*
X242528374Y-43471932D01*
X242566315Y-43413261D01*
X242629953Y-43384417D01*
X242699083Y-43394556D01*
G37*
%TD.AperFunction*%
%TA.AperFunction,Conductor*%
G36*
X244943039Y-21019685D02*
G01*
X244988794Y-21072489D01*
X245000000Y-21124000D01*
X245000000Y-70876000D01*
X244980315Y-70943039D01*
X244927511Y-70988794D01*
X244876000Y-71000000D01*
X225124000Y-71000000D01*
X225056961Y-70980315D01*
X225011206Y-70927511D01*
X225000000Y-70876000D01*
X225000000Y-68375920D01*
X241502562Y-68375920D01*
X241502562Y-68624079D01*
X241543408Y-68868862D01*
X241623984Y-69103572D01*
X241623989Y-69103582D01*
X241742094Y-69321822D01*
X241742100Y-69321831D01*
X241894517Y-69517656D01*
X241894520Y-69517660D01*
X241894522Y-69517662D01*
X241894523Y-69517663D01*
X242077102Y-69685739D01*
X242284855Y-69821471D01*
X242512116Y-69921157D01*
X242752685Y-69982077D01*
X242835123Y-69988908D01*
X242999994Y-70002571D01*
X243000000Y-70002571D01*
X243000006Y-70002571D01*
X243148389Y-69990274D01*
X243247315Y-69982077D01*
X243487884Y-69921157D01*
X243715145Y-69821471D01*
X243922898Y-69685739D01*
X244105477Y-69517663D01*
X244257902Y-69321828D01*
X244376014Y-69103576D01*
X244456592Y-68868859D01*
X244497438Y-68624081D01*
X244500000Y-68500000D01*
X244497438Y-68375919D01*
X244456592Y-68131141D01*
X244376014Y-67896424D01*
X244326568Y-67805057D01*
X244257905Y-67678177D01*
X244257899Y-67678168D01*
X244105482Y-67482343D01*
X244105479Y-67482339D01*
X243922899Y-67314262D01*
X243922895Y-67314259D01*
X243715146Y-67178529D01*
X243487884Y-67078843D01*
X243247311Y-67017922D01*
X243000006Y-66997430D01*
X242999994Y-66997430D01*
X242752688Y-67017922D01*
X242512115Y-67078843D01*
X242284853Y-67178529D01*
X242077104Y-67314259D01*
X242077100Y-67314262D01*
X241894520Y-67482339D01*
X241894517Y-67482343D01*
X241742100Y-67678168D01*
X241742094Y-67678177D01*
X241623989Y-67896417D01*
X241623984Y-67896427D01*
X241543408Y-68131137D01*
X241502562Y-68375920D01*
X225000000Y-68375920D01*
X225000000Y-68122068D01*
X225019685Y-68055029D01*
X225072489Y-68009274D01*
X225122050Y-67998083D01*
X225157131Y-67997533D01*
X225157138Y-67997532D01*
X225157141Y-67997532D01*
X225313023Y-67977839D01*
X225468916Y-67958146D01*
X225773306Y-67879992D01*
X225773309Y-67879991D01*
X226065492Y-67764308D01*
X226065496Y-67764305D01*
X226065501Y-67764304D01*
X226340891Y-67612907D01*
X226595135Y-67428187D01*
X226824223Y-67213060D01*
X227024542Y-66970916D01*
X227192932Y-66705575D01*
X227326739Y-66421221D01*
X227423852Y-66122339D01*
X227482739Y-65813643D01*
X227485475Y-65770168D01*
X227502472Y-65500005D01*
X227502472Y-65499994D01*
X227482740Y-65186364D01*
X227482739Y-65186357D01*
X227423852Y-64877661D01*
X227326739Y-64578779D01*
X227192932Y-64294425D01*
X227024542Y-64029084D01*
X226824223Y-63786940D01*
X226595135Y-63571813D01*
X226340891Y-63387093D01*
X226340887Y-63387091D01*
X226340878Y-63387085D01*
X226065500Y-63235695D01*
X226065492Y-63235691D01*
X225773309Y-63120008D01*
X225773306Y-63120007D01*
X225468919Y-63041854D01*
X225468906Y-63041852D01*
X225157138Y-63002467D01*
X225157142Y-63002467D01*
X225122051Y-63001916D01*
X225055329Y-62981180D01*
X225010410Y-62927663D01*
X225000000Y-62877931D01*
X225000000Y-45709627D01*
X227537525Y-45709627D01*
X227537525Y-45709634D01*
X227537525Y-45709635D01*
X227537525Y-46205370D01*
X227537526Y-46205376D01*
X227543586Y-46261749D01*
X227543586Y-46288253D01*
X227537525Y-46344627D01*
X227537525Y-46344632D01*
X227537525Y-46344633D01*
X227537525Y-46840370D01*
X227537526Y-46840376D01*
X227543586Y-46896749D01*
X227543586Y-46923253D01*
X227537525Y-46979627D01*
X227537525Y-46979632D01*
X227537525Y-46979633D01*
X227537525Y-47475370D01*
X227537526Y-47475376D01*
X227543586Y-47531749D01*
X227543586Y-47558253D01*
X227537525Y-47614627D01*
X227537525Y-47614632D01*
X227537525Y-47614633D01*
X227537525Y-48110370D01*
X227537526Y-48110376D01*
X227543586Y-48166749D01*
X227543586Y-48193253D01*
X227537525Y-48249627D01*
X227537525Y-48249632D01*
X227537525Y-48249633D01*
X227537525Y-48745370D01*
X227537526Y-48745376D01*
X227543586Y-48801749D01*
X227543586Y-48828253D01*
X227537525Y-48884627D01*
X227537525Y-48884632D01*
X227537525Y-48884633D01*
X227537525Y-49380370D01*
X227537526Y-49380376D01*
X227543586Y-49436749D01*
X227543586Y-49463253D01*
X227537525Y-49519627D01*
X227537525Y-49519632D01*
X227537525Y-49519633D01*
X227537525Y-50015370D01*
X227537526Y-50015376D01*
X227543586Y-50071749D01*
X227543586Y-50098253D01*
X227537525Y-50154627D01*
X227537525Y-50154632D01*
X227537525Y-50154633D01*
X227537525Y-50650370D01*
X227537526Y-50650376D01*
X227543586Y-50706749D01*
X227543586Y-50733253D01*
X227537525Y-50789627D01*
X227537525Y-50789632D01*
X227537525Y-50789633D01*
X227537525Y-51285370D01*
X227537526Y-51285376D01*
X227543586Y-51341749D01*
X227543586Y-51368253D01*
X227537525Y-51424627D01*
X227537525Y-51424632D01*
X227537525Y-51424633D01*
X227537525Y-51920370D01*
X227537526Y-51920376D01*
X227543586Y-51976749D01*
X227543586Y-52003253D01*
X227537525Y-52059627D01*
X227537525Y-52059632D01*
X227537525Y-52059633D01*
X227537525Y-52555370D01*
X227537526Y-52555376D01*
X227543586Y-52611749D01*
X227543586Y-52638253D01*
X227537525Y-52694627D01*
X227537525Y-52694632D01*
X227537525Y-52694633D01*
X227537525Y-53190370D01*
X227537526Y-53190376D01*
X227543586Y-53246749D01*
X227543586Y-53273253D01*
X227537525Y-53329627D01*
X227537525Y-53329632D01*
X227537525Y-53329633D01*
X227537525Y-53825370D01*
X227537526Y-53825376D01*
X227543586Y-53881749D01*
X227543586Y-53908253D01*
X227537525Y-53964627D01*
X227537525Y-53964629D01*
X227537525Y-53964633D01*
X227537525Y-54460370D01*
X227537526Y-54460376D01*
X227543586Y-54516749D01*
X227543586Y-54543253D01*
X227537525Y-54599627D01*
X227537525Y-54599629D01*
X227537525Y-54599633D01*
X227537525Y-55095370D01*
X227537526Y-55095376D01*
X227543586Y-55151749D01*
X227543586Y-55178253D01*
X227537525Y-55234627D01*
X227537525Y-55234632D01*
X227537525Y-55234633D01*
X227537525Y-55730370D01*
X227537526Y-55730376D01*
X227543586Y-55786749D01*
X227543586Y-55813253D01*
X227537525Y-55869627D01*
X227537525Y-55869632D01*
X227537525Y-55869633D01*
X227537525Y-56365370D01*
X227537526Y-56365376D01*
X227543586Y-56421749D01*
X227543586Y-56448253D01*
X227537525Y-56504627D01*
X227537525Y-56504629D01*
X227537525Y-56504633D01*
X227537525Y-57000370D01*
X227537526Y-57000376D01*
X227543586Y-57056749D01*
X227543586Y-57083253D01*
X227537525Y-57139627D01*
X227537525Y-57139629D01*
X227537525Y-57139633D01*
X227537525Y-57635370D01*
X227537526Y-57635376D01*
X227543586Y-57691749D01*
X227543586Y-57718253D01*
X227537525Y-57774627D01*
X227537525Y-57774629D01*
X227537525Y-57774633D01*
X227537525Y-58270370D01*
X227537526Y-58270376D01*
X227543586Y-58326749D01*
X227543586Y-58353253D01*
X227537525Y-58409627D01*
X227537525Y-58409629D01*
X227537525Y-58409633D01*
X227537525Y-58905370D01*
X227537526Y-58905376D01*
X227543586Y-58961749D01*
X227543586Y-58988253D01*
X227537525Y-59044627D01*
X227537525Y-59044629D01*
X227537525Y-59044633D01*
X227537525Y-59540370D01*
X227537526Y-59540376D01*
X227543586Y-59596749D01*
X227543586Y-59623253D01*
X227537525Y-59679627D01*
X227537525Y-59679632D01*
X227537525Y-59679633D01*
X227537525Y-60175370D01*
X227537526Y-60175376D01*
X227543586Y-60231749D01*
X227543586Y-60258253D01*
X227537525Y-60314627D01*
X227537525Y-60314632D01*
X227537525Y-60314633D01*
X227537525Y-60810370D01*
X227537526Y-60810376D01*
X227543933Y-60869983D01*
X227594227Y-61004828D01*
X227594231Y-61004835D01*
X227680477Y-61120044D01*
X227680480Y-61120047D01*
X227795689Y-61206293D01*
X227795696Y-61206297D01*
X227930542Y-61256591D01*
X227930541Y-61256591D01*
X227937469Y-61257335D01*
X227990152Y-61263000D01*
X229285897Y-61262999D01*
X229345508Y-61256591D01*
X229480356Y-61206296D01*
X229595571Y-61120046D01*
X229595573Y-61120042D01*
X229596305Y-61119312D01*
X229597217Y-61118814D01*
X229602670Y-61114732D01*
X229603257Y-61115516D01*
X229657631Y-61085832D01*
X229683980Y-61083000D01*
X230034277Y-61083000D01*
X230101316Y-61102685D01*
X230126425Y-61124026D01*
X230132151Y-61130385D01*
X230132155Y-61130389D01*
X230285290Y-61241648D01*
X230285295Y-61241651D01*
X230458217Y-61318642D01*
X230458222Y-61318644D01*
X230643379Y-61358000D01*
X230643380Y-61358000D01*
X230832669Y-61358000D01*
X230832671Y-61358000D01*
X231017828Y-61318644D01*
X231190755Y-61241651D01*
X231343896Y-61130388D01*
X231470558Y-60989716D01*
X231565204Y-60825784D01*
X231623699Y-60645756D01*
X231643485Y-60457500D01*
X231623699Y-60269244D01*
X231565204Y-60089216D01*
X231515199Y-60002605D01*
X231498727Y-59934707D01*
X231515198Y-59878611D01*
X231552656Y-59813733D01*
X231611151Y-59633705D01*
X231630937Y-59445449D01*
X231611151Y-59257193D01*
X231552656Y-59077165D01*
X231464093Y-58923769D01*
X231447620Y-58855869D01*
X231468358Y-58795950D01*
X231467309Y-58795344D01*
X231470454Y-58789896D01*
X231470473Y-58789842D01*
X231470536Y-58789753D01*
X231470556Y-58789717D01*
X231470558Y-58789716D01*
X231565204Y-58625784D01*
X231623699Y-58445756D01*
X231643485Y-58257500D01*
X231623699Y-58069244D01*
X231579661Y-57933712D01*
X231577667Y-57863873D01*
X231613747Y-57804040D01*
X231676448Y-57773212D01*
X231745862Y-57781176D01*
X231785274Y-57807715D01*
X234300665Y-60323106D01*
X234300694Y-60323137D01*
X234390911Y-60413354D01*
X234390914Y-60413356D01*
X234390916Y-60413358D01*
X234439303Y-60445689D01*
X234493364Y-60481812D01*
X234560045Y-60509431D01*
X234560047Y-60509433D01*
X234600289Y-60526101D01*
X234607197Y-60528963D01*
X234667620Y-60540981D01*
X234728042Y-60553000D01*
X234728043Y-60553000D01*
X236813525Y-60553000D01*
X236880564Y-60572685D01*
X236926319Y-60625489D01*
X236937525Y-60676999D01*
X236937525Y-60810369D01*
X236937526Y-60810376D01*
X236943933Y-60869983D01*
X236994227Y-61004828D01*
X236994231Y-61004835D01*
X237080477Y-61120044D01*
X237080480Y-61120047D01*
X237195689Y-61206293D01*
X237195696Y-61206297D01*
X237330542Y-61256591D01*
X237330541Y-61256591D01*
X237337469Y-61257335D01*
X237390152Y-61263000D01*
X238685897Y-61262999D01*
X238745508Y-61256591D01*
X238880356Y-61206296D01*
X238982621Y-61129740D01*
X239048083Y-61105323D01*
X239116357Y-61120174D01*
X239129817Y-61128689D01*
X239132151Y-61130384D01*
X239132154Y-61130388D01*
X239285291Y-61241648D01*
X239285295Y-61241651D01*
X239458217Y-61318642D01*
X239458222Y-61318644D01*
X239643379Y-61358000D01*
X239643380Y-61358000D01*
X239713525Y-61358000D01*
X239780564Y-61377685D01*
X239826319Y-61430489D01*
X239837525Y-61482000D01*
X239837525Y-61572047D01*
X239817840Y-61639086D01*
X239801206Y-61659728D01*
X238143767Y-63317166D01*
X238082444Y-63350651D01*
X238044865Y-63352975D01*
X238006616Y-63349500D01*
X237493384Y-63349500D01*
X237422804Y-63355914D01*
X237344364Y-63380356D01*
X237274414Y-63402153D01*
X237204554Y-63403303D01*
X237145162Y-63366502D01*
X237115094Y-63303433D01*
X237113525Y-63283767D01*
X237113525Y-63248519D01*
X237130138Y-63186519D01*
X237165204Y-63125784D01*
X237223699Y-62945756D01*
X237243485Y-62757500D01*
X237223699Y-62569244D01*
X237165204Y-62389216D01*
X237070558Y-62225284D01*
X236943896Y-62084612D01*
X236923951Y-62070121D01*
X236790759Y-61973351D01*
X236790754Y-61973348D01*
X236617832Y-61896357D01*
X236617827Y-61896355D01*
X236472026Y-61865365D01*
X236432671Y-61857000D01*
X236243379Y-61857000D01*
X236180562Y-61870352D01*
X236072857Y-61893245D01*
X236003189Y-61887929D01*
X235974365Y-61870352D01*
X235973453Y-61871608D01*
X235815058Y-61756528D01*
X235815053Y-61756525D01*
X235642131Y-61679534D01*
X235642126Y-61679532D01*
X235496325Y-61648542D01*
X235456970Y-61640177D01*
X235267678Y-61640177D01*
X235235221Y-61647075D01*
X235082521Y-61679532D01*
X235082516Y-61679534D01*
X234909594Y-61756525D01*
X234909589Y-61756528D01*
X234756453Y-61867788D01*
X234629790Y-62008462D01*
X234535145Y-62172392D01*
X234535142Y-62172399D01*
X234476651Y-62352417D01*
X234476650Y-62352421D01*
X234456864Y-62540677D01*
X234476650Y-62728933D01*
X234476651Y-62728936D01*
X234535142Y-62908954D01*
X234535145Y-62908961D01*
X234595912Y-63014212D01*
X234612525Y-63076212D01*
X234612525Y-63345081D01*
X234592840Y-63412120D01*
X234540036Y-63457875D01*
X234470878Y-63467819D01*
X234430083Y-63454445D01*
X234426318Y-63452433D01*
X234262519Y-63384585D01*
X234250000Y-63382094D01*
X234250000Y-64450272D01*
X234211940Y-64358386D01*
X234141614Y-64288060D01*
X234049728Y-64250000D01*
X233950272Y-64250000D01*
X233858386Y-64288060D01*
X233788060Y-64358386D01*
X233750000Y-64450272D01*
X233750000Y-63382095D01*
X233749999Y-63382094D01*
X233737480Y-63384585D01*
X233731651Y-63386354D01*
X233731093Y-63384517D01*
X233670462Y-63391023D01*
X233607989Y-63359735D01*
X233572349Y-63299639D01*
X233574858Y-63229814D01*
X233585114Y-63207002D01*
X233665204Y-63068284D01*
X233723699Y-62888256D01*
X233743485Y-62700000D01*
X233723699Y-62511744D01*
X233665204Y-62331716D01*
X233570558Y-62167784D01*
X233443896Y-62027112D01*
X233443895Y-62027111D01*
X233290759Y-61915851D01*
X233290754Y-61915848D01*
X233117832Y-61838857D01*
X233117827Y-61838855D01*
X232972026Y-61807865D01*
X232932671Y-61799500D01*
X232743379Y-61799500D01*
X232710922Y-61806398D01*
X232558222Y-61838855D01*
X232558217Y-61838857D01*
X232385295Y-61915848D01*
X232385290Y-61915851D01*
X232232155Y-62027110D01*
X232232151Y-62027114D01*
X232226425Y-62033474D01*
X232166938Y-62070121D01*
X232134277Y-62074500D01*
X231138388Y-62074500D01*
X231021708Y-62097709D01*
X231017559Y-62098534D01*
X231017550Y-62098536D01*
X231017548Y-62098537D01*
X231017546Y-62098537D01*
X231017542Y-62098539D01*
X230903718Y-62145686D01*
X230903716Y-62145687D01*
X230817662Y-62203186D01*
X230817663Y-62203187D01*
X230801262Y-62214146D01*
X230801260Y-62214147D01*
X230480282Y-62535127D01*
X230401269Y-62614140D01*
X230401267Y-62614142D01*
X230357704Y-62657704D01*
X230314142Y-62701266D01*
X230301876Y-62719623D01*
X230289692Y-62737859D01*
X230245690Y-62803710D01*
X230245685Y-62803719D01*
X230198540Y-62917538D01*
X230198535Y-62917554D01*
X230182875Y-62996287D01*
X230174500Y-63038389D01*
X230174500Y-65506993D01*
X230198535Y-65627829D01*
X230198539Y-65627841D01*
X230207924Y-65650497D01*
X230207925Y-65650500D01*
X230245685Y-65741664D01*
X230245687Y-65741668D01*
X230264730Y-65770166D01*
X230264731Y-65770168D01*
X230314140Y-65844114D01*
X230314141Y-65844115D01*
X230314142Y-65844116D01*
X230401267Y-65931241D01*
X230401268Y-65931241D01*
X230408335Y-65938308D01*
X230408334Y-65938308D01*
X230408338Y-65938311D01*
X231258815Y-66788790D01*
X231258819Y-66788793D01*
X231366333Y-66860632D01*
X231365761Y-66861487D01*
X231386127Y-66876588D01*
X231445396Y-66935857D01*
X231445398Y-66935859D01*
X231547837Y-67004307D01*
X231547841Y-67004309D01*
X231547844Y-67004311D01*
X231661678Y-67051463D01*
X231722101Y-67063481D01*
X231782523Y-67075500D01*
X238119436Y-67075500D01*
X238179858Y-67063481D01*
X238240281Y-67051463D01*
X238240284Y-67051461D01*
X238240287Y-67051461D01*
X238273616Y-67037654D01*
X238273615Y-67037654D01*
X238273621Y-67037652D01*
X238354115Y-67004312D01*
X238405338Y-66970084D01*
X238456562Y-66935858D01*
X238543687Y-66848733D01*
X238543688Y-66848731D01*
X238550754Y-66841665D01*
X238550757Y-66841661D01*
X239398729Y-65993689D01*
X239398733Y-65993687D01*
X239485858Y-65906562D01*
X239527583Y-65844116D01*
X239554312Y-65804115D01*
X239601463Y-65690280D01*
X239625500Y-65569436D01*
X239625500Y-65446222D01*
X239625500Y-64946847D01*
X239645185Y-64879808D01*
X239661814Y-64859171D01*
X241898729Y-62622256D01*
X241898733Y-62622254D01*
X241985858Y-62535129D01*
X242054311Y-62432682D01*
X242054312Y-62432681D01*
X242054313Y-62432678D01*
X242054315Y-62432675D01*
X242072313Y-62389222D01*
X242101463Y-62318847D01*
X242125500Y-62198003D01*
X242125500Y-62074789D01*
X242125500Y-61104933D01*
X242145185Y-61037894D01*
X242197989Y-60992139D01*
X242262102Y-60981575D01*
X242324991Y-60988000D01*
X243675008Y-60987999D01*
X243777797Y-60977499D01*
X243944334Y-60922314D01*
X244093656Y-60830212D01*
X244217712Y-60706156D01*
X244309814Y-60556834D01*
X244364999Y-60390297D01*
X244375500Y-60287509D01*
X244375499Y-59562492D01*
X244375043Y-59558031D01*
X244364999Y-59459703D01*
X244364998Y-59459700D01*
X244356150Y-59433000D01*
X244309814Y-59293166D01*
X244217712Y-59143844D01*
X244093656Y-59019788D01*
X243944334Y-58927686D01*
X243777797Y-58872501D01*
X243777795Y-58872500D01*
X243675010Y-58862000D01*
X242324998Y-58862000D01*
X242324981Y-58862001D01*
X242222203Y-58872500D01*
X242222200Y-58872501D01*
X242055668Y-58927685D01*
X242055663Y-58927687D01*
X241906342Y-59019789D01*
X241837181Y-59088951D01*
X241775858Y-59122436D01*
X241706166Y-59117452D01*
X241650233Y-59075580D01*
X241625816Y-59010116D01*
X241625500Y-59001270D01*
X241625500Y-57923730D01*
X241645185Y-57856691D01*
X241697989Y-57810936D01*
X241767147Y-57800992D01*
X241830703Y-57830017D01*
X241837181Y-57836049D01*
X241906344Y-57905212D01*
X242055666Y-57997314D01*
X242222203Y-58052499D01*
X242324991Y-58063000D01*
X243675008Y-58062999D01*
X243777797Y-58052499D01*
X243944334Y-57997314D01*
X244093656Y-57905212D01*
X244217712Y-57781156D01*
X244309814Y-57631834D01*
X244364999Y-57465297D01*
X244375500Y-57362509D01*
X244375499Y-56637492D01*
X244364999Y-56534703D01*
X244309814Y-56368166D01*
X244217712Y-56218844D01*
X244099844Y-56100976D01*
X244066359Y-56039653D01*
X244063525Y-56013295D01*
X244063525Y-43305766D01*
X244063526Y-43305745D01*
X244063526Y-43176416D01*
X244039489Y-43055580D01*
X244039488Y-43055574D01*
X243992337Y-42941740D01*
X243923883Y-42839292D01*
X243923880Y-42839288D01*
X243498733Y-42414143D01*
X242097698Y-41013108D01*
X242097678Y-41013086D01*
X242006233Y-40921641D01*
X241955009Y-40887415D01*
X241903787Y-40853189D01*
X241903786Y-40853188D01*
X241903783Y-40853186D01*
X241903780Y-40853185D01*
X241823292Y-40819847D01*
X241789954Y-40806038D01*
X241789955Y-40806038D01*
X241789952Y-40806037D01*
X241789948Y-40806036D01*
X241789944Y-40806035D01*
X241718304Y-40791785D01*
X241718303Y-40791785D01*
X241669111Y-40782000D01*
X241669107Y-40782000D01*
X241669106Y-40782000D01*
X237597477Y-40782000D01*
X237530438Y-40762315D01*
X237484683Y-40709511D01*
X237474739Y-40640353D01*
X237503764Y-40576797D01*
X237509796Y-40570319D01*
X237781033Y-40299082D01*
X238861329Y-39218785D01*
X238861333Y-39218783D01*
X238948458Y-39131658D01*
X238982684Y-39080434D01*
X239016912Y-39029211D01*
X239064063Y-38915376D01*
X239088100Y-38794532D01*
X239088100Y-38671318D01*
X239088100Y-29209115D01*
X239445199Y-29209115D01*
X239448282Y-29359780D01*
X239487329Y-29579854D01*
X239564219Y-29789724D01*
X239676584Y-29982934D01*
X239820974Y-30153549D01*
X239825142Y-30157009D01*
X239992943Y-30296317D01*
X240006024Y-30303760D01*
X240187206Y-30406850D01*
X240226896Y-30420967D01*
X240397795Y-30481752D01*
X240397801Y-30481753D01*
X240397809Y-30481755D01*
X240618224Y-30518717D01*
X240618223Y-30518717D01*
X240647641Y-30519054D01*
X240730000Y-30520000D01*
X240730014Y-30520000D01*
X242000000Y-30520000D01*
X242000030Y-30520000D01*
X242101870Y-30519445D01*
X242112058Y-30519390D01*
X242333245Y-30483574D01*
X242544724Y-30409522D01*
X242739938Y-30299531D01*
X242912838Y-30157009D01*
X243058065Y-29986375D01*
X243171116Y-29792917D01*
X243248488Y-29582630D01*
X243287783Y-29362034D01*
X243289117Y-29299058D01*
X243291068Y-29292899D01*
X243290158Y-29250000D01*
X243290159Y-29250000D01*
X243287784Y-29137966D01*
X243249129Y-28920961D01*
X243248490Y-28917374D01*
X243248489Y-28917371D01*
X243248489Y-28917369D01*
X243171116Y-28707083D01*
X243058449Y-28514282D01*
X243058067Y-28513628D01*
X243058060Y-28513619D01*
X242917269Y-28348195D01*
X242912839Y-28342990D01*
X242912837Y-28342988D01*
X242912835Y-28342986D01*
X242739942Y-28200471D01*
X242739935Y-28200466D01*
X242544726Y-28090479D01*
X242544720Y-28090476D01*
X242333246Y-28016426D01*
X242333248Y-28016426D01*
X242112068Y-27980609D01*
X242112056Y-27980608D01*
X242000031Y-27980000D01*
X242000000Y-27980000D01*
X240783226Y-27980000D01*
X240774954Y-27977571D01*
X240627399Y-27979258D01*
X240618424Y-27979361D01*
X240593065Y-27983613D01*
X240398340Y-28016262D01*
X240398331Y-28016265D01*
X240188092Y-28091040D01*
X239994131Y-28201399D01*
X239994126Y-28201402D01*
X239822441Y-28343935D01*
X239822433Y-28343942D01*
X239678280Y-28514281D01*
X239566094Y-28707191D01*
X239489337Y-28916718D01*
X239450357Y-29136450D01*
X239449096Y-29196805D01*
X239445199Y-29209115D01*
X239088100Y-29209115D01*
X239088100Y-24789894D01*
X239088100Y-24779905D01*
X239088099Y-24779891D01*
X239088099Y-24016403D01*
X239107784Y-23949364D01*
X239160588Y-23903609D01*
X239229746Y-23893665D01*
X239283219Y-23914826D01*
X239401338Y-23997534D01*
X239601550Y-24090894D01*
X239814932Y-24148070D01*
X239972123Y-24161822D01*
X240034998Y-24167323D01*
X240035000Y-24167323D01*
X240035002Y-24167323D01*
X240090017Y-24162509D01*
X240255068Y-24148070D01*
X240468450Y-24090894D01*
X240668662Y-23997534D01*
X240849620Y-23870826D01*
X241005826Y-23714620D01*
X241132534Y-23533662D01*
X241225894Y-23333450D01*
X241283070Y-23120068D01*
X241302323Y-22900000D01*
X241283070Y-22679932D01*
X241225894Y-22466550D01*
X241132534Y-22266339D01*
X241005826Y-22085380D01*
X240849620Y-21929174D01*
X240849616Y-21929171D01*
X240849615Y-21929170D01*
X240668666Y-21802468D01*
X240668662Y-21802466D01*
X240668660Y-21802465D01*
X240468450Y-21709106D01*
X240468447Y-21709105D01*
X240468445Y-21709104D01*
X240255070Y-21651930D01*
X240255062Y-21651929D01*
X240035002Y-21632677D01*
X240034998Y-21632677D01*
X239814937Y-21651929D01*
X239814929Y-21651930D01*
X239601554Y-21709104D01*
X239601548Y-21709107D01*
X239401340Y-21802465D01*
X239401338Y-21802466D01*
X239220377Y-21929175D01*
X239064175Y-22085377D01*
X238937466Y-22266338D01*
X238937465Y-22266340D01*
X238844107Y-22466548D01*
X238844104Y-22466554D01*
X238786930Y-22679929D01*
X238786929Y-22679937D01*
X238767677Y-22899997D01*
X238767677Y-22900002D01*
X238786929Y-23120062D01*
X238786931Y-23120073D01*
X238821425Y-23248807D01*
X238819762Y-23318657D01*
X238780599Y-23376519D01*
X238716371Y-23404023D01*
X238688397Y-23404190D01*
X238679539Y-23403237D01*
X238635473Y-23398500D01*
X238635466Y-23398500D01*
X238289730Y-23398500D01*
X238289723Y-23398501D01*
X238230115Y-23404909D01*
X238230114Y-23404909D01*
X238213429Y-23411132D01*
X238143737Y-23416114D01*
X238126771Y-23411132D01*
X238110086Y-23404909D01*
X238110082Y-23404908D01*
X238050482Y-23398501D01*
X238050473Y-23398500D01*
X238050463Y-23398500D01*
X237704730Y-23398500D01*
X237704723Y-23398501D01*
X237645115Y-23404909D01*
X237645114Y-23404909D01*
X237628429Y-23411132D01*
X237558737Y-23416114D01*
X237541771Y-23411132D01*
X237525086Y-23404909D01*
X237525082Y-23404908D01*
X237465482Y-23398501D01*
X237465473Y-23398500D01*
X237465463Y-23398500D01*
X237119730Y-23398500D01*
X237119723Y-23398501D01*
X237060115Y-23404909D01*
X237060114Y-23404909D01*
X237043429Y-23411132D01*
X236973737Y-23416114D01*
X236956771Y-23411132D01*
X236940086Y-23404909D01*
X236940082Y-23404908D01*
X236880482Y-23398501D01*
X236880473Y-23398500D01*
X236880463Y-23398500D01*
X236722525Y-23398500D01*
X236655486Y-23378815D01*
X236609731Y-23326011D01*
X236599787Y-23256853D01*
X236615137Y-23212502D01*
X236665204Y-23125784D01*
X236723699Y-22945756D01*
X236743485Y-22757500D01*
X236723699Y-22569244D01*
X236665204Y-22389216D01*
X236570558Y-22225284D01*
X236443896Y-22084612D01*
X236443895Y-22084611D01*
X236290759Y-21973351D01*
X236290754Y-21973348D01*
X236117832Y-21896357D01*
X236117827Y-21896355D01*
X235972026Y-21865365D01*
X235932671Y-21857000D01*
X235743379Y-21857000D01*
X235710922Y-21863898D01*
X235558222Y-21896355D01*
X235558217Y-21896357D01*
X235385295Y-21973348D01*
X235385290Y-21973351D01*
X235232154Y-22084611D01*
X235105491Y-22225285D01*
X235010846Y-22389215D01*
X235010843Y-22389222D01*
X234952352Y-22569240D01*
X234952351Y-22569244D01*
X234940718Y-22679929D01*
X234932565Y-22757500D01*
X234940070Y-22828914D01*
X234936232Y-22869282D01*
X234937325Y-22869500D01*
X234912100Y-22996314D01*
X234912100Y-23274500D01*
X234892415Y-23341539D01*
X234839611Y-23387294D01*
X234788111Y-23398500D01*
X234779735Y-23398500D01*
X234779723Y-23398501D01*
X234720115Y-23404909D01*
X234720114Y-23404909D01*
X234703429Y-23411132D01*
X234633737Y-23416114D01*
X234616771Y-23411132D01*
X234600086Y-23404909D01*
X234600082Y-23404908D01*
X234540482Y-23398501D01*
X234540473Y-23398500D01*
X234540463Y-23398500D01*
X234194730Y-23398500D01*
X234194723Y-23398501D01*
X234135115Y-23404909D01*
X234135114Y-23404909D01*
X234118429Y-23411132D01*
X234048737Y-23416114D01*
X234031771Y-23411132D01*
X234015086Y-23404909D01*
X234015082Y-23404908D01*
X233955482Y-23398501D01*
X233955473Y-23398500D01*
X233955463Y-23398500D01*
X233609730Y-23398500D01*
X233609723Y-23398501D01*
X233550115Y-23404909D01*
X233550114Y-23404909D01*
X233533429Y-23411132D01*
X233463737Y-23416114D01*
X233446771Y-23411132D01*
X233430086Y-23404909D01*
X233430082Y-23404908D01*
X233370482Y-23398501D01*
X233370473Y-23398500D01*
X233370463Y-23398500D01*
X233024730Y-23398500D01*
X233024723Y-23398501D01*
X232965115Y-23404909D01*
X232965114Y-23404909D01*
X232948429Y-23411132D01*
X232878737Y-23416114D01*
X232861771Y-23411132D01*
X232845086Y-23404909D01*
X232845082Y-23404908D01*
X232785482Y-23398501D01*
X232785473Y-23398500D01*
X232785463Y-23398500D01*
X232439730Y-23398500D01*
X232439723Y-23398501D01*
X232380115Y-23404909D01*
X232380114Y-23404909D01*
X232363429Y-23411132D01*
X232293737Y-23416114D01*
X232276771Y-23411132D01*
X232260086Y-23404909D01*
X232260082Y-23404908D01*
X232200482Y-23398501D01*
X232200473Y-23398500D01*
X232200463Y-23398500D01*
X231854730Y-23398500D01*
X231854723Y-23398501D01*
X231795115Y-23404909D01*
X231795114Y-23404909D01*
X231778429Y-23411132D01*
X231708737Y-23416114D01*
X231691771Y-23411132D01*
X231675086Y-23404909D01*
X231675082Y-23404908D01*
X231615482Y-23398501D01*
X231615473Y-23398500D01*
X231615463Y-23398500D01*
X231269730Y-23398500D01*
X231269718Y-23398501D01*
X231221742Y-23403658D01*
X231152983Y-23391250D01*
X231101847Y-23343638D01*
X231084570Y-23275938D01*
X231088714Y-23248282D01*
X231123070Y-23120068D01*
X231142323Y-22900000D01*
X231123070Y-22679932D01*
X231065894Y-22466550D01*
X230972534Y-22266339D01*
X230845826Y-22085380D01*
X230689620Y-21929174D01*
X230689616Y-21929171D01*
X230689615Y-21929170D01*
X230508666Y-21802468D01*
X230508662Y-21802466D01*
X230508660Y-21802465D01*
X230308450Y-21709106D01*
X230308447Y-21709105D01*
X230308445Y-21709104D01*
X230095070Y-21651930D01*
X230095062Y-21651929D01*
X229875002Y-21632677D01*
X229874998Y-21632677D01*
X229654937Y-21651929D01*
X229654929Y-21651930D01*
X229441554Y-21709104D01*
X229441548Y-21709107D01*
X229241340Y-21802465D01*
X229241338Y-21802466D01*
X229060377Y-21929175D01*
X228904175Y-22085377D01*
X228777466Y-22266338D01*
X228777465Y-22266340D01*
X228684107Y-22466548D01*
X228684104Y-22466554D01*
X228626930Y-22679929D01*
X228626929Y-22679937D01*
X228607677Y-22899997D01*
X228607677Y-22900002D01*
X228626929Y-23120062D01*
X228626930Y-23120070D01*
X228684104Y-23333445D01*
X228684105Y-23333447D01*
X228684106Y-23333450D01*
X228717428Y-23404909D01*
X228777466Y-23533662D01*
X228777468Y-23533666D01*
X228904170Y-23714615D01*
X228904175Y-23714621D01*
X229060378Y-23870824D01*
X229060384Y-23870829D01*
X229241333Y-23997531D01*
X229241335Y-23997532D01*
X229241338Y-23997534D01*
X229441550Y-24090894D01*
X229654932Y-24148070D01*
X229812123Y-24161822D01*
X229874998Y-24167323D01*
X229875000Y-24167323D01*
X229875002Y-24167323D01*
X229930017Y-24162509D01*
X230095068Y-24148070D01*
X230308450Y-24090894D01*
X230508662Y-23997534D01*
X230621978Y-23918189D01*
X230688182Y-23895863D01*
X230755950Y-23912873D01*
X230803763Y-23963821D01*
X230817100Y-24019765D01*
X230817100Y-24789891D01*
X230817100Y-24789894D01*
X230817100Y-29523681D01*
X230840904Y-29643358D01*
X230840911Y-29643392D01*
X230840910Y-29643392D01*
X230841136Y-29644525D01*
X230888285Y-29758355D01*
X230888290Y-29758364D01*
X230922514Y-29809582D01*
X230922515Y-29809584D01*
X230956741Y-29860808D01*
X231048186Y-29952253D01*
X231048208Y-29952273D01*
X231299063Y-30203128D01*
X231332548Y-30264451D01*
X231334703Y-30277847D01*
X231337427Y-30303760D01*
X231352351Y-30445756D01*
X231352352Y-30445759D01*
X231410843Y-30625777D01*
X231410846Y-30625784D01*
X231505492Y-30789716D01*
X231632154Y-30930388D01*
X231785290Y-31041648D01*
X231785295Y-31041651D01*
X231958217Y-31118642D01*
X231958222Y-31118644D01*
X232143379Y-31158000D01*
X232143380Y-31158000D01*
X232332669Y-31158000D01*
X232332671Y-31158000D01*
X232517828Y-31118644D01*
X232690755Y-31041651D01*
X232843896Y-30930388D01*
X232970558Y-30789716D01*
X233065204Y-30625784D01*
X233123699Y-30445756D01*
X233143485Y-30257500D01*
X233133024Y-30157973D01*
X233145593Y-30089247D01*
X233193325Y-30038223D01*
X233261065Y-30021105D01*
X233282127Y-30023725D01*
X233443379Y-30058000D01*
X233443380Y-30058000D01*
X233632669Y-30058000D01*
X233632671Y-30058000D01*
X233817828Y-30018644D01*
X233990755Y-29941651D01*
X234143896Y-29830388D01*
X234270558Y-29689716D01*
X234365204Y-29525784D01*
X234423699Y-29345756D01*
X234443485Y-29157500D01*
X234423699Y-28969244D01*
X234412717Y-28935447D01*
X234410723Y-28865609D01*
X234446803Y-28805776D01*
X234509503Y-28774947D01*
X234578918Y-28782911D01*
X234581085Y-28783852D01*
X234727720Y-28849139D01*
X234727725Y-28849141D01*
X234912882Y-28888497D01*
X234912883Y-28888497D01*
X234988525Y-28888497D01*
X235055564Y-28908182D01*
X235101319Y-28960986D01*
X235112525Y-29012497D01*
X235112525Y-37189802D01*
X235092840Y-37256841D01*
X235040036Y-37302596D01*
X234988525Y-37313802D01*
X230003836Y-37313802D01*
X229943418Y-37325820D01*
X229905706Y-37333321D01*
X229882997Y-37337838D01*
X229882995Y-37337839D01*
X229849654Y-37351649D01*
X229769166Y-37384986D01*
X229769152Y-37384994D01*
X229666719Y-37453440D01*
X229666711Y-37453446D01*
X228555356Y-38564802D01*
X228519270Y-38600888D01*
X228519267Y-38600891D01*
X228494206Y-38625952D01*
X228432142Y-38688015D01*
X228411367Y-38719108D01*
X228411366Y-38719109D01*
X228363690Y-38790457D01*
X228363686Y-38790465D01*
X228342004Y-38842813D01*
X228316538Y-38904293D01*
X228316535Y-38904305D01*
X228292500Y-39025138D01*
X228292500Y-40299086D01*
X228316535Y-40419919D01*
X228316540Y-40419936D01*
X228363685Y-40533755D01*
X228363690Y-40533764D01*
X228387305Y-40569105D01*
X228387306Y-40569107D01*
X228432141Y-40636207D01*
X228432144Y-40636211D01*
X228523586Y-40727653D01*
X228523608Y-40727673D01*
X229176206Y-41380271D01*
X229209691Y-41441594D01*
X229212525Y-41467952D01*
X229212525Y-45133000D01*
X229192840Y-45200039D01*
X229140036Y-45245794D01*
X229088525Y-45257000D01*
X227990154Y-45257000D01*
X227990148Y-45257001D01*
X227930541Y-45263408D01*
X227795696Y-45313702D01*
X227795689Y-45313706D01*
X227680480Y-45399952D01*
X227680477Y-45399955D01*
X227594231Y-45515164D01*
X227594227Y-45515171D01*
X227543935Y-45650013D01*
X227543934Y-45650017D01*
X227537525Y-45709627D01*
X225000000Y-45709627D01*
X225000000Y-42875919D01*
X225502562Y-42875919D01*
X225502562Y-43124081D01*
X225518527Y-43219752D01*
X225543408Y-43368862D01*
X225623984Y-43603572D01*
X225623989Y-43603582D01*
X225742094Y-43821822D01*
X225742100Y-43821831D01*
X225894517Y-44017656D01*
X225894520Y-44017660D01*
X225894522Y-44017662D01*
X225894523Y-44017663D01*
X226077102Y-44185739D01*
X226284855Y-44321471D01*
X226512116Y-44421157D01*
X226752685Y-44482077D01*
X226835123Y-44488908D01*
X226999994Y-44502571D01*
X227000000Y-44502571D01*
X227000006Y-44502571D01*
X227148389Y-44490274D01*
X227247315Y-44482077D01*
X227487884Y-44421157D01*
X227715145Y-44321471D01*
X227922898Y-44185739D01*
X228105477Y-44017663D01*
X228257902Y-43821828D01*
X228376014Y-43603576D01*
X228456592Y-43368859D01*
X228497438Y-43124081D01*
X228500000Y-43000000D01*
X228497438Y-42875919D01*
X228456592Y-42631141D01*
X228376014Y-42396424D01*
X228257902Y-42178172D01*
X228173178Y-42069319D01*
X228105482Y-41982343D01*
X228105479Y-41982339D01*
X227922899Y-41814262D01*
X227922895Y-41814259D01*
X227715146Y-41678529D01*
X227487884Y-41578843D01*
X227247311Y-41517922D01*
X227000006Y-41497430D01*
X226999994Y-41497430D01*
X226752688Y-41517922D01*
X226512115Y-41578843D01*
X226284853Y-41678529D01*
X226077104Y-41814259D01*
X226077100Y-41814262D01*
X225894520Y-41982339D01*
X225894517Y-41982343D01*
X225742100Y-42178168D01*
X225742094Y-42178177D01*
X225623989Y-42396417D01*
X225623984Y-42396427D01*
X225543408Y-42631137D01*
X225511377Y-42823091D01*
X225502562Y-42875919D01*
X225000000Y-42875919D01*
X225000000Y-29213508D01*
X226720909Y-29213508D01*
X226724151Y-29364008D01*
X226763183Y-29584068D01*
X226763183Y-29584070D01*
X226840055Y-29793928D01*
X226840057Y-29793931D01*
X226952408Y-29987139D01*
X226952411Y-29987142D01*
X226952412Y-29987144D01*
X227096783Y-30157755D01*
X227268728Y-30300516D01*
X227268730Y-30300517D01*
X227268736Y-30300522D01*
X227462987Y-30411060D01*
X227462988Y-30411060D01*
X227462993Y-30411063D01*
X227673557Y-30485966D01*
X227673559Y-30485966D01*
X227673561Y-30485967D01*
X227893981Y-30522939D01*
X228005748Y-30524227D01*
X228005769Y-30524227D01*
X229275748Y-30524227D01*
X229275800Y-30524227D01*
X229374510Y-30523705D01*
X229387805Y-30523635D01*
X229573169Y-30493612D01*
X229608993Y-30487811D01*
X229608995Y-30487810D01*
X229679484Y-30463125D01*
X229820469Y-30413754D01*
X230015681Y-30303760D01*
X230188580Y-30161236D01*
X230333805Y-29990601D01*
X230446857Y-29797143D01*
X230524231Y-29586857D01*
X230563529Y-29366261D01*
X230564865Y-29303261D01*
X230566842Y-29297019D01*
X230565771Y-29248026D01*
X230563459Y-29142196D01*
X230524170Y-28921606D01*
X230446805Y-28711325D01*
X230333763Y-28517869D01*
X230189365Y-28348198D01*
X230188543Y-28347232D01*
X230015654Y-28204712D01*
X229820453Y-28094720D01*
X229820450Y-28094719D01*
X229608985Y-28020664D01*
X229608981Y-28020663D01*
X229387803Y-27984840D01*
X229387795Y-27984839D01*
X229275775Y-27984227D01*
X229275748Y-27984227D01*
X228058966Y-27984227D01*
X228050663Y-27981789D01*
X228005765Y-27982312D01*
X228005766Y-27982312D01*
X227909368Y-27983435D01*
X227894170Y-27983613D01*
X227674096Y-28020520D01*
X227463851Y-28095300D01*
X227269902Y-28205655D01*
X227269900Y-28205656D01*
X227098207Y-28348195D01*
X227098204Y-28348198D01*
X226954051Y-28518532D01*
X226954050Y-28518533D01*
X226841864Y-28711432D01*
X226765099Y-28920959D01*
X226726112Y-29140676D01*
X226724846Y-29201073D01*
X226720909Y-29213508D01*
X225000000Y-29213508D01*
X225000000Y-21124000D01*
X225019685Y-21056961D01*
X225072489Y-21011206D01*
X225124000Y-21000000D01*
X244876000Y-21000000D01*
X244943039Y-21019685D01*
G37*
%TD.AperFunction*%
%TD*%
M02*
